<svg width="51" height="51" viewBox="0 0 51 51" fill="none" xmlns="http://www.w3.org/2000/svg">
<g clip-path="url(#clip0_1951_155)">
<path d="M28.2188 19.3081H23.7705V31.192H26.7295V28.2146H28.2188C30.6744 28.2146 32.6721 26.2169 32.6721 23.7614C32.6721 21.3058 30.6743 19.3081 28.2188 19.3081ZM28.2188 25.2557H26.7295V22.2671H28.2188C29.0428 22.2671 29.7131 22.9375 29.7131 23.7614C29.7131 24.5853 29.0427 25.2557 28.2188 25.2557Z" fill="#3E4695"/>
<path d="M16.9283 19.3081C14.4742 19.3081 12.4775 21.3048 12.4775 23.7589V31.192H15.4365V28.2146H18.4202V31.1926H21.3792V23.7588C21.3792 21.3048 19.3825 19.3081 16.9283 19.3081ZM15.4365 25.2557V23.7589C15.4365 22.9363 16.1057 22.2671 16.9283 22.2671C17.7509 22.2671 18.4202 22.9363 18.4202 23.7589V25.2557H15.4365Z" fill="#3E4695"/>
<path d="M34.606 19.3074H37.5649V31.1926H34.606V19.3074Z" fill="#3E4695"/>
<path d="M36.0822 9.27563L37.9939 5.9303H41.8522C42.4635 7.65923 44.1135 8.90161 46.0492 8.90161C48.5034 8.90161 50.5 6.90499 50.5 4.45081C50.5 1.99662 48.5034 0 46.0492 0C44.1136 0 42.4635 1.24238 41.8522 2.97131H36.2767L33.5152 7.80373C32.3071 7.22909 31.0304 6.77627 29.7008 6.46134V0H26.7418V5.99983C26.2494 5.96206 25.7519 5.94263 25.25 5.94263C24.7481 5.94263 24.2506 5.96196 23.7582 5.99983V0H20.7992V6.46134C19.4696 6.77627 18.1928 7.229 16.9848 7.80373L14.2233 2.97131H8.64783C8.0365 1.24238 6.38638 0 4.45081 0C1.99662 0 0 1.99662 0 4.45081C0 6.90499 1.99662 8.90161 4.45081 8.90161C6.38638 8.90161 8.0365 7.65923 8.64783 5.9303H12.5061L14.4177 9.27563C12.2523 10.7487 10.4003 12.6497 8.98515 14.8566H0V17.8156H7.43218C6.65456 19.6723 6.15834 21.675 5.99875 23.7705H0V26.7295H5.99875C6.15834 28.825 6.65446 30.8277 7.43208 32.6844H0V35.6434H8.98515C10.4003 37.8503 12.2524 39.7513 14.4177 41.2244L12.5061 44.5697H8.64783C8.0365 42.8408 6.38647 41.5984 4.45081 41.5984C1.99662 41.5984 0 43.595 0 46.0492C0 48.5034 1.99662 50.5 4.45081 50.5C6.38638 50.5 8.0365 49.2576 8.64783 47.5287H14.2233L16.9848 42.6963C18.1929 43.2709 19.4696 43.7237 20.7992 44.0387V50.5H23.7582V44.5002C24.2506 44.5379 24.7481 44.5574 25.25 44.5574C25.7519 44.5574 26.2494 44.538 26.7418 44.5002V50.5H29.7008V44.0387C31.0304 43.7237 32.3072 43.271 33.5152 42.6963L36.2767 47.5287H41.8522C42.4635 49.2576 44.1136 50.5 46.0492 50.5C48.5034 50.5 50.5 48.5034 50.5 46.0492C50.5 43.595 48.5034 41.5984 46.0492 41.5984C44.1136 41.5984 42.4635 42.8408 41.8522 44.5697H37.9939L36.0822 41.2244C38.2477 39.7513 40.0997 37.8503 41.5148 35.6434H50.5V32.6844H43.0678C43.8454 30.8277 44.3417 28.825 44.5012 26.7295H50.5V23.7705H44.5013C44.3417 21.675 43.8455 19.6723 43.0679 17.8156H50.5V14.8566H41.5148C40.0997 12.6497 38.2476 10.7487 36.0822 9.27563ZM46.0492 2.95898C46.8718 2.95898 47.541 3.62821 47.541 4.45081C47.541 5.2734 46.8718 5.94263 46.0492 5.94263C45.2266 5.94263 44.5574 5.2734 44.5574 4.45081C44.5574 3.62821 45.2266 2.95898 46.0492 2.95898ZM4.45081 5.94263C3.62821 5.94263 2.95898 5.2734 2.95898 4.45081C2.95898 3.62821 3.62821 2.95898 4.45081 2.95898C5.2734 2.95898 5.94263 3.62821 5.94263 4.45081C5.94263 5.2734 5.2734 5.94263 4.45081 5.94263ZM4.45081 47.541C3.62821 47.541 2.95898 46.8718 2.95898 46.0492C2.95898 45.2266 3.62821 44.5574 4.45081 44.5574C5.2734 44.5574 5.94263 45.2266 5.94263 46.0492C5.94263 46.8718 5.2734 47.541 4.45081 47.541ZM46.0492 44.5574C46.8718 44.5574 47.541 45.2266 47.541 46.0492C47.541 46.8718 46.8718 47.541 46.0492 47.541C45.2266 47.541 44.5574 46.8718 44.5574 46.0492C44.5574 45.2266 45.2266 44.5574 46.0492 44.5574ZM25.25 41.5984C16.2355 41.5984 8.90161 34.2645 8.90161 25.25C8.90161 16.2355 16.2355 8.90161 25.25 8.90161C34.2645 8.90161 41.5984 16.2355 41.5984 25.25C41.5984 34.2645 34.2645 41.5984 25.25 41.5984Z" fill="#088671"/>
</g>
<defs>
<clipPath id="clip0_1951_155">
<rect width="50.5" height="50.5" fill="white"/>
</clipPath>
</defs>
</svg>
