<svg width="427" height="13" viewBox="0 0 427 13" fill="none" xmlns="http://www.w3.org/2000/svg">
<g clip-path="url(#clip0_1039_156)">
<g clip-path="url(#clip1_1039_156)">
<path d="M287.407 3.355C287.567 3.60926 287.435 3.82346 286.982 3.86874C285.849 3.9828 284.703 4.08729 283.552 4.10993C281.049 4.15608 278.541 4.14563 276.238 4.15869C275.625 4.41643 275.694 4.58187 276.261 4.6437C276.828 4.70552 277.412 4.71858 277.991 4.71858C299.485 4.76125 320.987 4.78737 342.481 4.84919C344.795 4.85529 347.109 5.0216 349.411 5.18094C352.115 5.36641 354.801 5.46741 357.51 5.18442C358.644 5.06687 359.829 4.94062 360.963 5.00157C371.199 5.56145 381.456 5.44478 391.708 5.46045C392.848 5.46393 393.988 5.59454 395.121 5.68858C395.208 5.69555 395.316 5.86795 395.31 5.95851C395.305 6.05342 395.214 6.19971 395.087 6.22583C394.383 6.37908 393.65 6.63943 392.945 6.61592C390.821 6.548 388.724 6.43045 386.633 6.82751C385.935 6.9616 385.098 6.86408 384.325 6.8606C378.518 6.85363 372.71 6.83796 366.902 6.84057C358.38 6.84405 349.864 6.8606 341.342 6.86669C338.438 6.87018 335.545 6.91545 332.653 7.14359C330.551 7.30903 328.409 7.32644 326.284 7.33515C311.181 7.40481 296.072 7.43964 280.969 7.51104C276.33 7.53455 271.697 7.5598 267.051 7.82102C262.447 8.08137 257.779 8.01607 253.139 8.02913C231.06 8.07789 208.982 8.08747 186.908 8.14232C177.612 8.16583 168.317 8.29557 159.021 8.31212C149.337 8.32518 139.657 8.24072 129.973 8.23114C116.416 8.21808 102.859 8.22069 89.3021 8.2503C86.7944 8.25639 84.2849 8.40964 81.7702 8.50107C79.8407 8.56899 77.9102 8.68654 75.9798 8.71266C71.5303 8.77361 67.0739 8.78406 62.6183 8.8363C60.4876 8.86242 58.3343 8.82673 56.2384 9.00174C51.2378 9.42492 46.204 9.44495 41.1746 9.53551C38.8559 9.57904 36.5475 9.72794 34.2279 9.83156C28.2485 10.1058 22.3319 10.704 16.3298 10.8677C14.7886 10.9095 13.2596 11.1203 11.7193 11.1664C8.82669 11.2543 5.92278 11.3231 3.02496 11.3197C1.35836 11.3197 0.241204 10.5743 0.167191 9.58166C0.0923074 8.59772 0.0461582 7.61204 9.07492e-06 6.62985C-0.0226301 6.1344 0.475433 5.76347 1.17986 5.578C2.22213 5.30807 3.32188 5.05381 4.44513 4.95281C5.96805 4.8161 7.53103 4.84571 9.07746 4.77082C11.775 4.6437 14.4726 4.50089 17.171 4.35113C18.1331 4.29888 19.0892 4.1883 20.0514 4.14912C27.3882 3.85306 34.7024 3.42031 42.0045 2.9475C44.6907 2.77596 47.417 2.80818 50.1258 2.7629C55.1544 2.68105 60.1951 2.72981 65.1896 2.25526C66.7064 2.11159 68.2764 2.15077 69.828 2.12117C76.2088 2.01058 82.5887 1.99752 88.9695 1.64661C94.3533 1.35056 99.805 1.38887 105.224 1.38887C125.366 1.38626 145.504 1.43764 165.648 1.44808C190.046 1.46027 214.45 1.46376 238.849 1.45679C246.787 1.45418 254.731 1.42196 262.669 1.36972C264.988 1.35317 267.303 1.22343 269.623 1.15203C270.585 1.12243 271.552 1.0667 272.514 1.09631C275.023 1.16771 277.531 1.34969 280.035 1.35317C282.337 1.35666 284.639 1.17728 286.942 1.09282C287.079 1.08673 287.372 1.23214 287.348 1.27829C287.274 1.45766 287.177 1.73369 286.965 1.77635C286.248 1.92002 285.481 2.04019 284.726 2.05673C282.406 2.11159 280.08 2.10201 277.755 2.15077C276.999 2.16731 276.226 2.24829 275.504 2.37542C275.292 2.41112 275.183 2.70369 275.12 2.89264C275.098 2.95795 275.332 3.11032 275.481 3.13035C276.226 3.22178 277.04 3.41334 277.733 3.32888C280.991 2.93879 284.205 3.12687 287.407 3.355ZM267.229 3.06505C267.086 3.00671 266.942 2.89961 266.8 2.89612C263.529 2.86042 260.259 2.83082 256.983 2.82124C256.25 2.81776 255.51 2.89612 254.709 2.9414C255.19 3.57965 256.072 3.42989 256.759 3.44904C258.334 3.48822 259.807 3.53699 260.82 4.40337C261.038 4.58884 261.96 4.66982 262.401 4.5723C264.011 4.22052 265.557 3.77818 267.109 3.355C267.206 3.3254 267.189 3.16344 267.229 3.06505ZM235.477 2.97101C235.019 2.97101 234.641 2.95795 234.262 2.9771C234.09 2.98755 233.827 3.02935 233.775 3.09813C233.621 3.30276 233.861 3.42031 234.365 3.46907C234.927 3.52131 235.477 3.61535 236.032 3.67108C236.513 3.71984 236.805 3.60229 236.794 3.35761C236.788 3.27402 236.628 3.15299 236.49 3.12077C236.135 3.04589 235.763 3.01019 235.477 2.97101Z" fill="#1EC69F"/>
<path d="M316.146 0.870597C320.98 0.870597 325.814 0.867985 330.648 0.874951C332.584 0.877563 334.532 0.86189 336.335 1.34341C336.616 1.41829 336.759 1.66558 336.965 1.83102C336.805 1.89023 336.645 2.00082 336.479 2.0043C333.197 2.05654 329.915 2.12794 326.627 2.13491C318.116 2.15058 309.611 2.14362 301.101 2.12794C299.961 2.12446 298.816 2.01736 297.676 1.93638C297.521 1.92593 297.246 1.78313 297.269 1.73437C297.343 1.54194 297.458 1.22934 297.67 1.19712C298.581 1.05084 299.531 0.90978 300.471 0.907168C305.694 0.881046 310.911 0.894107 316.135 0.894107C316.146 0.884529 316.146 0.877563 316.146 0.871468V0.870597ZM413.861 5.83468C414.159 5.95223 414.577 6.03321 414.714 6.19342C414.782 6.28117 414.813 6.39178 414.8 6.5017C414.787 6.61163 414.732 6.71221 414.646 6.78204C414.045 7.24789 413.168 7.37763 412.172 7.14688C411.932 7.09116 411.662 6.77856 411.73 6.63576C412.012 6.07587 412.813 5.80595 413.861 5.83468ZM425.311 6.69758C424.88 6.64882 424.331 6.60964 423.815 6.51473C423.397 6.43636 423.283 6.23609 423.5 6.04366C423.58 5.97139 423.81 5.90956 423.959 5.91653C424.502 5.93788 425.045 5.97913 425.585 6.04017C426.45 6.14118 426.96 6.45639 426.473 6.54781C426.135 6.61312 425.775 6.63924 425.311 6.69758ZM345.522 1.19364C346.066 1.16404 346.553 1.08654 347 1.1353C347.189 1.15446 347.493 1.48969 347.406 1.58373C347.126 1.89023 346.553 1.92332 346.072 1.75962C345.837 1.67864 345.757 1.4479 345.522 1.19364ZM405.654 6.77595C405.453 6.60354 405.167 6.44681 405.082 6.25786C405.043 6.16557 405.037 6.06313 405.064 5.96697C405.091 5.87082 405.15 5.78652 405.23 5.72758C405.528 5.5186 406.427 5.61699 406.627 5.89041C406.742 6.04017 406.679 6.29704 406.507 6.42765C406.313 6.57742 405.911 6.64534 405.602 6.74634L405.654 6.77595ZM310.23 3.28951C310.358 3.18751 310.512 3.12413 310.674 3.10685C310.836 3.08957 311 3.11911 311.146 3.19199C311.25 3.24075 311.313 3.40358 311.244 3.4654C311.015 3.68308 310.666 3.72227 310.344 3.56989C310.242 3.52113 310.264 3.38442 310.23 3.28951ZM413.89 2.00082C413.718 1.98427 413.443 1.99733 413.386 1.94248C413.163 1.71783 413.357 1.59418 413.879 1.64643C414.027 1.65862 414.148 1.75962 414.279 1.81883C414.148 1.87717 414.021 1.93899 413.89 2.00082ZM386.564 1.88327L386.204 1.81187L386.496 1.70128L386.564 1.88414V1.88327ZM420.133 1.94509L419.927 1.75962L420.345 1.7631L420.133 1.94596V1.94509ZM329.291 3.11362L329.663 3.04919L329.611 3.2242L329.291 3.11362Z" fill="#1EC69F"/>
</g>
</g>
<defs>
<clipPath id="clip0_1039_156">
<rect width="426.662" height="12.1903" fill="white"/>
</clipPath>
<clipPath id="clip1_1039_156">
<rect width="426.662" height="10.4489" fill="white" transform="translate(0 0.871094)"/>
</clipPath>
</defs>
</svg>
