<svg width="41" height="53" viewBox="0 0 41 53" fill="none" xmlns="http://www.w3.org/2000/svg">
<path d="M40.2862 22.7363C40.2862 21.6867 39.4323 20.8326 38.3825 20.8326H35.9439V8.26677H37.6322C38.0214 8.26677 38.3733 8.05146 38.5503 7.70485C38.7274 7.35824 38.6957 6.947 38.4675 6.63168L33.9803 0.42652C33.7879 0.160637 33.4772 0.00123094 33.149 0C32.825 0.000718047 32.5091 0.155919 32.3147 0.420057L27.7496 6.6248C27.5178 6.93972 27.4835 7.35218 27.6599 7.70105C27.8363 8.05002 28.1888 8.26687 28.5799 8.26687H30.3501V20.8327H26.3584C25.3087 20.8327 24.4546 21.6867 24.4546 22.7364V24.5028C24.4546 24.9281 24.5965 25.32 24.8331 25.6372C24.5966 25.9545 24.4546 26.3464 24.4546 26.7717V28.538C24.4546 28.9632 24.5965 29.3551 24.8331 29.6724C24.5966 29.9896 24.4546 30.3815 24.4546 30.8068V32.5732C24.4546 32.6982 24.4683 32.82 24.4917 32.9382H22.9807V16.3086H24.669C25.0582 16.3086 25.41 16.0933 25.5871 15.7467C25.7641 15.4001 25.7324 14.9888 25.5043 14.6735L21.0173 8.46854C20.8251 8.20256 20.5144 8.04305 20.1861 8.04171C20.1847 8.04171 20.1834 8.04171 20.1819 8.04171C19.8553 8.04171 19.5451 8.19845 19.3515 8.46177L14.7864 14.6665C14.5546 14.9814 14.5202 15.3939 14.6967 15.7428C14.8731 16.0917 15.2257 16.3086 15.6167 16.3086H17.3868V32.9378H13.955C12.9054 32.9378 12.0513 33.7918 12.0513 34.8415V35.88C11.4088 35.6062 10.7277 35.4059 10.0173 35.2942V24.9046H11.7056C12.0948 24.9046 12.4465 24.6893 12.6236 24.3428C12.8007 23.9962 12.769 23.585 12.541 23.2695L8.05413 17.0649C7.8619 16.7989 7.55129 16.6393 7.22314 16.6379C6.89438 16.6363 6.58285 16.7934 6.38816 17.0578L1.82302 23.2628C1.59129 23.5777 1.55703 23.9902 1.73347 24.339C1.91 24.6878 2.26246 24.9046 2.65349 24.9046H4.42358V27.5935C4.42358 28.0185 4.76804 28.3629 5.19291 28.3629C5.61779 28.3629 5.96225 28.0185 5.96225 27.5935V24.397C5.96225 23.8285 5.49973 23.366 4.93134 23.366H3.65783L7.21555 18.5303L10.7124 23.366H9.51002C8.94153 23.366 8.47911 23.8285 8.47911 24.397V35.1928C7.60237 35.2115 6.75754 35.3604 5.96276 35.6221V31.1838C5.96276 30.7588 5.61831 30.4144 5.19343 30.4144C4.76855 30.4144 4.42409 30.7588 4.42409 31.1838V36.3015C1.7863 37.7889 0 40.616 0 43.854C0 48.6324 3.88751 52.5199 8.6659 52.5199C10.7112 52.5199 12.5919 51.8061 14.0758 50.6166H38.3825C39.4322 50.6166 40.2862 49.7626 40.2862 48.7128V46.9464C40.2862 46.5211 40.1444 46.1294 39.9077 45.8121C40.1443 45.4948 40.2862 45.1031 40.2862 44.6778V42.9114C40.2862 42.4861 40.1444 42.0943 39.9077 41.777C40.1443 41.4597 40.2862 41.0679 40.2862 40.6426V38.8763C40.2862 38.451 40.1444 38.0592 39.9077 37.7419C40.1443 37.4246 40.2862 37.0328 40.2862 36.6075V34.8411C40.2862 34.4158 40.1444 34.024 39.9078 33.7068C40.1444 33.3895 40.2862 32.9977 40.2862 32.5725V30.8061C40.2862 30.3808 40.1444 29.9889 39.9077 29.6716C40.1443 29.3544 40.2862 28.9625 40.2862 28.5372V26.7709C40.2862 26.3457 40.1444 25.9538 39.9077 25.6365C40.1443 25.3193 40.2862 24.9274 40.2862 24.5021V22.7363ZM29.5839 6.7282L33.1417 1.89246L36.6385 6.7282H35.4361C34.8677 6.7282 34.4052 7.19073 34.4052 7.75911V20.8327H31.8889V7.75911C31.8889 7.19073 31.4263 6.7282 30.8579 6.7282H29.5839ZM16.6208 14.7699L20.1786 9.93418L23.6753 14.7699H22.473C21.9045 14.7699 21.442 15.2324 21.442 15.8008V32.9378H18.9257V15.8008C18.9257 15.2324 18.4631 14.7699 17.8948 14.7699H16.6208ZM8.6659 50.9813C4.73593 50.9813 1.53867 47.7841 1.53867 43.8541C1.53867 39.9241 4.73593 36.7269 8.6659 36.7269C12.5959 36.7269 15.7931 39.9241 15.7931 43.8541C15.7931 47.7841 12.5959 50.9813 8.6659 50.9813ZM26.3445 48.713C26.3445 48.9143 26.1807 49.0781 25.9795 49.0781H15.5746C16.141 48.331 16.5876 47.4893 16.8895 46.5818H25.9795C26.1807 46.5818 26.3445 46.7455 26.3445 46.9467V48.713ZM26.3445 40.6429C26.3445 40.8441 26.1807 41.008 25.9795 41.008H23.0153C22.5903 41.008 22.2459 41.3523 22.2459 41.7773C22.2459 42.2023 22.5903 42.5466 23.0153 42.5466H25.9795C26.1807 42.5466 26.3445 42.7105 26.3445 42.9117V44.6781C26.3445 44.8794 26.1807 45.0432 25.9795 45.0432H17.2482C17.3019 44.6542 17.3318 44.2577 17.3318 43.8542C17.3318 43.4096 17.2964 42.9735 17.2315 42.5467H19.425C19.8499 42.5467 20.1944 42.2024 20.1944 41.7774C20.1944 41.3524 19.8499 41.0081 19.425 41.0081H16.8496C16.532 40.0978 16.0679 39.2557 15.4836 38.5117H25.9795C26.1807 38.5117 26.3445 38.6755 26.3445 38.8768V40.6429ZM26.3445 36.6079C26.3445 36.8091 26.1807 36.973 25.9795 36.973H13.9553C13.9432 36.973 13.9319 36.9705 13.9201 36.9694C13.8213 36.8938 13.7209 36.8204 13.6188 36.749C13.6005 36.7055 13.5903 36.6579 13.5903 36.6079V34.8415C13.5903 34.6402 13.754 34.4765 13.9553 34.4765H25.9795C26.1807 34.4765 26.3445 34.6402 26.3445 34.8415V36.6079ZM38.7476 48.713C38.7476 48.9143 38.5837 49.0781 38.3825 49.0781H27.8472C27.8703 48.9598 27.8832 48.838 27.8832 48.713V46.9466C27.8832 46.8216 27.8696 46.6999 27.8463 46.5816H38.3825C38.5837 46.5816 38.7476 46.7454 38.7476 46.9466V48.713ZM38.7476 44.678C38.7476 44.8793 38.5837 45.0431 38.3825 45.0431H27.8462C27.8696 44.9248 27.8832 44.8032 27.8832 44.678V42.9116C27.8832 42.7866 27.8696 42.6648 27.8462 42.5465H38.3825C38.5837 42.5465 38.7476 42.7104 38.7476 42.9116V44.678ZM38.7476 40.6429C38.7476 40.8441 38.5837 41.008 38.3825 41.008H27.8462C27.8696 40.8897 27.8832 40.768 27.8832 40.6429V38.8766C27.8832 38.7516 27.8696 38.6298 27.8462 38.5115H38.3825C38.5837 38.5115 38.7476 38.6753 38.7476 38.8766V40.6429ZM38.7476 32.5729C38.7476 32.7739 38.5841 32.9374 38.3832 32.9378C38.383 32.9378 38.3828 32.9378 38.3826 32.9378H36.453C36.028 32.9378 35.6837 33.2822 35.6837 33.7072C35.6837 34.1322 36.028 34.4765 36.453 34.4765H38.3805C38.3811 34.4765 38.3819 34.4766 38.3825 34.4766H38.3831C38.584 34.477 38.7475 34.6405 38.7475 34.8416V36.608C38.7475 36.8092 38.5836 36.9731 38.3824 36.9731H27.8462C27.8696 36.8548 27.8832 36.7331 27.8832 36.608V34.8416C27.8832 34.7166 27.8703 34.5948 27.8472 34.4765H32.8628C33.2877 34.4765 33.6321 34.1322 33.6321 33.7072C33.6321 33.2822 33.2877 32.9378 32.8628 32.9378H26.3585C26.3583 32.9378 26.3581 32.9378 26.3579 32.9378C26.1569 32.9374 25.9935 32.7739 25.9935 32.5729V30.8065C25.9935 30.6052 26.1573 30.4414 26.3586 30.4414H38.3825C38.5837 30.4414 38.7476 30.6052 38.7476 30.8065V32.5729ZM38.7476 28.5377C38.7476 28.739 38.5837 28.9028 38.3825 28.9028H26.3585C26.1572 28.9028 25.9934 28.739 25.9934 28.5377V26.7715C25.9934 26.5702 26.1572 26.4064 26.3585 26.4064H38.3825C38.5837 26.4064 38.7476 26.5702 38.7476 26.7715V28.5377ZM38.7476 24.5027C38.7476 24.704 38.5837 24.8678 38.3825 24.8678H26.3585C26.1572 24.8678 25.9934 24.704 25.9934 24.5027V22.7363C25.9934 22.5351 26.1572 22.3713 26.3585 22.3713H38.3825C38.5837 22.3713 38.7476 22.5351 38.7476 22.7363V24.5027Z" fill="#3E4695"/>
</svg>
