<svg width="53" height="53" viewBox="0 0 53 53" fill="none" xmlns="http://www.w3.org/2000/svg">
<g clip-path="url(#clip0_1479_216)">
<path d="M47.5373 7.33465H38.1355V4.24862C38.1355 3.82398 37.7913 3.47971 37.3666 3.47971C36.9418 3.47971 36.5977 3.82398 36.5977 4.24862V7.33465H33.4126C32.9879 7.33465 32.6437 7.67892 32.6437 8.10356C32.6437 8.52821 32.9879 8.87248 33.4126 8.87248H36.5977V12.1284H36.0206C35.2147 12.1284 34.5591 12.784 34.5591 13.5897V22.6418C34.5591 23.4477 35.2147 24.1032 36.0206 24.1032H36.5977V30.2034C36.5977 30.628 36.9418 30.9723 37.3666 30.9723C37.7913 30.9723 38.1355 30.628 38.1355 30.2034V24.1032H38.7126C39.5183 24.1032 40.1739 23.4476 40.1739 22.6418V13.5897C40.1739 12.7839 39.5183 12.1284 38.7126 12.1284H38.1355V8.87248H47.5373C49.3849 8.87248 50.8881 10.3757 50.8881 12.2233V38.5403H1.63183V12.2234C1.63183 10.3758 3.13501 8.87258 4.98267 8.87258H18.4615V10.3732H17.8844C17.0785 10.3732 16.423 11.0288 16.423 11.8346V20.8867C16.423 21.6925 17.0787 22.348 17.8844 22.348H18.4615V29.1425C18.4615 29.5671 18.8057 29.9114 19.2304 29.9114C19.655 29.9114 19.9993 29.5671 19.9993 29.1425V22.348H20.5764C21.3822 22.348 22.0378 21.6924 22.0378 20.8867V11.8346C22.0378 11.0287 21.3821 10.3732 20.5764 10.3732H19.9993V8.87248H23.1844C23.609 8.87248 23.9533 8.52821 23.9533 8.10356C23.9533 7.67892 23.609 7.33465 23.1844 7.33465H19.9993V6.9549C19.9993 6.53026 19.655 6.18599 19.2304 6.18599C18.8057 6.18599 18.4615 6.53026 18.4615 6.9549V7.33465H4.98267C2.28705 7.33465 0.0939941 9.5277 0.0939941 12.2233V39.3092C0.0939941 42.0048 2.28705 44.1979 4.98267 44.1979H16.6875V48.1074L14.2093 50.9822H13.2256C12.8009 50.9822 12.4566 51.3264 12.4566 51.7511C12.4566 52.1757 12.8009 52.52 13.2256 52.52H39.2235C39.6482 52.52 39.9924 52.1757 39.9924 51.7511C39.9924 51.3264 39.6482 50.9822 39.2235 50.9822H38.3106L35.8323 48.1074V44.1979H47.5373C50.2329 44.1979 52.426 42.0048 52.426 39.3092V12.2234C52.426 9.5278 50.2329 7.33465 47.5373 7.33465ZM38.6361 22.5656H36.097V13.6663H38.6362V22.5656H38.6361ZM20.4999 20.8102H17.9608V11.911H20.4999V20.8102ZM47.5373 42.66H31.9753C31.5506 42.66 31.2064 43.0043 31.2064 43.4289C31.2064 43.8536 31.5506 44.1979 31.9753 44.1979H34.2945V47.6243H32.3792C31.9544 47.6243 31.6103 47.9685 31.6103 48.3932C31.6103 48.8178 31.9544 49.1621 32.3792 49.1621H34.711L36.2802 50.9822H16.2397L17.8088 49.1621H20.1407C20.5653 49.1621 20.9096 48.8178 20.9096 48.3932C20.9096 47.9685 20.5653 47.6243 20.1407 47.6243H18.2254V44.1979H28.6984C29.1232 44.1979 29.4673 43.8536 29.4673 43.4289C29.4673 43.0043 29.1232 42.66 28.6984 42.66H4.98267C3.39962 42.66 2.07042 41.5563 1.72184 40.0781H50.798C50.4495 41.5563 49.1203 42.66 47.5373 42.66Z" fill="#3E4695"/>
<path d="M8.12378 22.4486C7.69913 22.4486 7.35486 22.7928 7.35486 23.2175V25.0738C7.35486 25.8796 8.01039 26.5351 8.81621 26.5351H9.39331V30.63C9.39331 31.0546 9.73758 31.3989 10.1622 31.3989C10.5869 31.3989 10.9311 31.0546 10.9311 30.63V26.5351H11.5082C12.3141 26.5351 12.9696 25.8796 12.9696 25.0738V16.0217C12.9696 15.2158 12.314 14.5602 11.5082 14.5602H10.9311V13.3303C10.9311 12.9057 10.5869 12.5614 10.1622 12.5614C9.73758 12.5614 9.39331 12.9057 9.39331 13.3303V14.5602H8.81621C8.01039 14.5602 7.35486 15.2158 7.35486 16.0217V19.9407C7.35486 20.3653 7.69913 20.7096 8.12378 20.7096C8.54842 20.7096 8.89269 20.3653 8.89269 19.9407V16.0981H10.1613H10.1623C10.1623 16.0981 10.1629 16.0981 10.1634 16.0981H11.432V24.9974H8.89269V23.2176C8.89269 22.7928 8.54842 22.4486 8.12378 22.4486Z" fill="#088671"/>
<path d="M26.9523 20.8265H27.5295V24.9212C27.5295 25.3459 27.8737 25.6901 28.2984 25.6901C28.7232 25.6901 29.0674 25.3459 29.0674 24.9212V20.8265H29.6445C30.4502 20.8265 31.1058 20.1708 31.1058 19.365V13.3339C31.1058 12.9093 30.7616 12.565 30.3369 12.565C29.9121 12.565 29.568 12.9093 29.568 13.3339V19.2886H27.0288V5.36581H29.568V10.0571C29.568 10.4818 29.9121 10.826 30.3369 10.826C30.7616 10.826 31.1058 10.4818 31.1058 10.0571V5.28933C31.1058 4.48361 30.4502 3.82798 29.6445 3.82798H29.0674V0.768917C29.0674 0.34427 28.7232 0 28.2984 0C27.8737 0 27.5295 0.34427 27.5295 0.768917V3.82798H26.9523C26.1465 3.82798 25.491 4.48361 25.491 5.28933V19.365C25.491 20.1709 26.1465 20.8265 26.9523 20.8265Z" fill="#088671"/>
<path d="M41.8039 21.0803C41.9429 21.3381 42.2078 21.4845 42.4814 21.4845C42.6045 21.4845 42.7296 21.4547 42.8457 21.3922L46.3875 19.4825L46.1327 20.1512C45.9815 20.548 46.1807 20.9922 46.5776 21.1435C46.6677 21.1777 46.7602 21.194 46.8512 21.194C47.1609 21.194 47.453 21.0054 47.5699 20.6986L48.4356 18.4261C48.5868 18.0293 48.3876 17.585 47.9908 17.4338L45.5787 16.5149C45.1819 16.3638 44.7376 16.5629 44.5864 16.9597C44.4352 17.3566 44.6344 17.8008 45.0312 17.9521L45.5905 18.1651L42.1158 20.0386C41.742 20.2401 41.6024 20.7065 41.8039 21.0803Z" fill="#088671"/>
<path d="M4.64042 36.1042C4.76529 36.396 5.04917 36.5708 5.34762 36.5708C5.4485 36.5708 5.55112 36.5508 5.64985 36.5086L15.5718 32.2622L16.4734 34.6246C16.5524 34.8314 16.7165 34.9941 16.9239 35.0712C17.1312 35.1482 17.3619 35.1323 17.5567 35.0272L33.9484 26.1893C34.3221 25.9877 34.4618 25.5214 34.2602 25.1476C34.0588 24.7739 33.5925 24.6341 33.2185 24.8357L17.5978 33.2579L16.7232 30.9662C16.6485 30.7707 16.4975 30.6141 16.3049 30.5325C16.1122 30.4507 15.8947 30.4513 15.7023 30.5335L5.04477 35.0947C4.65446 35.2619 4.47341 35.7138 4.64042 36.1042Z" fill="#088671"/>
</g>
<defs>
<clipPath id="clip0_1479_216">
<rect width="52.52" height="52.52" fill="white"/>
</clipPath>
</defs>
</svg>
