<svg width="59" height="57" viewBox="0 0 59 57" fill="none" xmlns="http://www.w3.org/2000/svg">
<path d="M27.7774 55.5552C43.1185 55.5552 55.5548 43.1187 55.5548 27.7776C55.5548 12.4365 43.1185 0 27.7774 0C12.4364 0 0 12.4365 0 27.7776C0 43.1187 12.4364 55.5552 27.7774 55.5552Z" fill="#16AF8C"/>
<g style="mix-blend-mode:soft-light">
<path d="M30.8262 56.3174C46.1673 56.3174 58.6036 43.8809 58.6036 28.5398C58.6036 13.1987 46.1673 0.762207 30.8262 0.762207C15.4852 0.762207 3.04883 13.1987 3.04883 28.5398C3.04883 43.8809 15.4852 56.3174 30.8262 56.3174Z" fill="#1EC69F"/>
</g>
<path d="M52.3401 18.4154C52.2622 18.4556 52.1746 18.4767 52.0864 18.4767C51.9982 18.4767 51.9105 18.4554 51.8326 18.4154C45.2057 14.993 41.1805 9.64384 40.2696 3.15953C36.5979 1.36677 32.4726 0.359375 28.1115 0.359375C12.7876 0.359375 0.365234 12.7819 0.365234 28.1058C0.365234 43.4297 12.7877 55.8523 28.1115 55.8523C43.4353 55.8523 55.8578 43.4297 55.8578 28.1058C55.8578 24.389 55.1251 20.8438 53.7993 17.6043C53.3278 17.8853 52.8419 18.1562 52.3401 18.4154Z" fill="#1EC69F"/>
<path d="M5.34457 35.7665C5.7333 35.3778 6.36349 35.3778 6.75221 35.7665L7.15662 36.1709C6.38238 33.6185 5.96431 30.9112 5.96431 28.1058C5.96431 13.7269 16.902 1.9029 30.9111 0.499269C29.9904 0.407078 29.0566 0.359375 28.1115 0.359375C12.7876 0.359375 0.365234 12.7819 0.365234 28.1058C0.365234 31.8444 1.10637 35.4093 2.44688 38.6642L5.34457 35.7665Z" fill="#14B892"/>
<path d="M39.9832 24.8174C41.9942 24.8174 43.6245 23.1871 43.6245 21.1761C43.6245 19.165 41.9942 17.5347 39.9832 17.5347C37.9721 17.5347 36.3418 19.165 36.3418 21.1761C36.3418 23.1871 37.9721 24.8174 39.9832 24.8174Z" fill="white"/>
<path d="M39.9844 24.8174V17.5347C41.9924 17.5347 43.6257 19.168 43.6257 21.1761C43.6257 23.1841 41.9924 24.8174 39.9844 24.8174Z" fill="#F2F2F2"/>
<path d="M45.2808 31.5364V38.698C45.2808 39.8057 44.3764 40.7068 43.2641 40.7068H36.2806C35.7324 40.7068 35.2875 40.2619 35.2875 39.7137C35.2875 38.7482 34.7539 33.8563 34.7539 31.5364C34.7539 29.0729 36.7706 27.0681 39.2493 27.0681H40.7853C43.2641 27.0681 45.2808 29.0729 45.2808 31.5364Z" fill="white"/>
<path d="M45.2809 31.5364V38.698C45.2809 39.8057 44.3765 40.7068 43.2643 40.7068H39.9844V27.0681H40.7855C43.2643 27.0681 45.2809 29.0729 45.2809 31.5364Z" fill="#F2F2F2"/>
<path d="M16.6785 24.8174C18.6895 24.8174 20.3198 23.1871 20.3198 21.1761C20.3198 19.165 18.6895 17.5347 16.6785 17.5347C14.6674 17.5347 13.0371 19.165 13.0371 21.1761C13.0371 23.1871 14.6674 24.8174 16.6785 24.8174Z" fill="white"/>
<path d="M16.6787 24.8174V17.5347C18.6868 17.5347 20.3201 19.168 20.3201 21.1761C20.3201 23.1841 18.6868 24.8174 16.6787 24.8174Z" fill="#F2F2F2"/>
<path d="M21.9087 31.5364C21.9087 33.9307 21.3751 38.7043 21.3751 39.7137C21.3751 40.2619 20.9302 40.7068 20.382 40.7068H13.329C12.2551 40.7068 11.3818 39.8368 11.3818 38.7669V31.5364C11.3818 29.0729 13.3985 27.0681 15.8773 27.0681H17.4133C19.892 27.0681 21.9087 29.0729 21.9087 31.5364Z" fill="white"/>
<path d="M21.909 31.5364C21.909 33.9307 21.3754 38.7043 21.3754 39.7137C21.3754 40.2619 20.9305 40.7068 20.3823 40.7068H16.6787V27.0681H17.4136C19.8924 27.0681 21.909 29.0729 21.909 31.5364Z" fill="#F2F2F2"/>
<path d="M28.3313 24.8174C31.5124 24.8174 34.0912 22.2385 34.0912 19.0574C34.0912 15.8762 31.5124 13.2974 28.3313 13.2974C25.1501 13.2974 22.5713 15.8762 22.5713 19.0574C22.5713 22.2385 25.1501 24.8174 28.3313 24.8174Z" fill="#3E4695"/>
<path d="M28.3301 24.8174V13.2974C31.506 13.2974 34.0901 15.8814 34.0901 19.0574C34.0901 22.2333 31.506 24.8174 28.3301 24.8174Z" fill="#272F7A"/>
<path d="M37.2693 35.0805V40.5068C37.2693 41.7853 36.2292 42.8254 34.9508 42.8254H21.7121C20.4337 42.8254 19.3936 41.7853 19.3936 40.5068V35.0805C19.3936 30.6625 22.9879 27.0681 27.4059 27.0681H29.257C33.675 27.0681 37.2693 30.6625 37.2693 35.0805Z" fill="#3E4695"/>
<path d="M37.268 35.0805V40.5068C37.268 41.7853 36.2279 42.8254 34.9494 42.8254H28.3301V27.0681H29.2556C33.6736 27.0681 37.268 30.6625 37.268 35.0805Z" fill="#272F7A"/>
</svg>
