<svg width="80" height="80" viewBox="0 0 80 80" fill="none" xmlns="http://www.w3.org/2000/svg">
<g clip-path="url(#clip0_725_2702)">
<path d="M73.363 22.9388H22.1514C21.3097 22.9388 20.625 22.2541 20.625 21.4124V8.69861C9.31297 15.3506 1.71875 27.6469 1.71875 41.7188C1.71875 62.861 18.8578 80 40 80C61.1422 80 78.2812 62.861 78.2812 41.7188C78.2812 34.8939 76.4931 28.4875 73.363 22.9388Z" fill="#3EECC4"/>
<path d="M70.4689 27.9875H10.9391C10.0753 27.9875 9.375 28.6879 9.375 29.5516V35.8758L10.7138 36.0322H70.8214L72.0328 35.8758V29.5516C72.033 28.6877 71.3327 27.9875 70.4689 27.9875Z" fill="#3E4695"/>
<path d="M17.342 29.5516C17.342 28.6879 18.0423 27.9875 18.9061 27.9875H10.9391C10.0753 27.9875 9.375 28.6879 9.375 29.5516V35.8758H17.342V29.5516Z" fill="#272F7A"/>
<path d="M63.1433 69.9979C62.8886 69.7431 62.8886 69.3285 63.1433 69.0737L66.263 65.954C66.3864 65.8306 66.5505 65.7626 66.7252 65.7626C66.8997 65.7626 67.0637 65.8306 67.1872 65.954L72.033 70.7998V35.8757H9.375V64.6898C12.3089 68.595 15.9716 71.9212 20.1622 74.4653H67.6106L63.1433 69.9979Z" fill="#EAF6FF"/>
<path d="M17.342 35.8757H9.375V64.6898C11.63 67.6914 14.317 70.3492 17.342 72.5745V35.8757Z" fill="#D8ECFE"/>
<path d="M20.6118 50.8401V41.9035C20.6118 41.6352 20.3943 41.4177 20.126 41.4177H16.5396C16.2713 41.4177 16.0538 41.6352 16.0538 41.9035V50.8401H20.6118Z" fill="#3CDEB9"/>
<path d="M18.4545 41.4178H16.5395C16.2712 41.4178 16.0537 41.6353 16.0537 41.9036V50.8402H17.9687V41.9036C17.9687 41.6353 18.1862 41.4178 18.4545 41.4178Z" fill="#1EC69F"/>
<path d="M26.8413 50.8401V45.7818C26.8413 45.5135 26.6238 45.296 26.3555 45.296H22.7691C22.5008 45.296 22.2833 45.5135 22.2833 45.7818V50.8401H26.8413Z" fill="#272F7A"/>
<path d="M24.6779 45.2961H22.7691C22.5008 45.2961 22.2833 45.5136 22.2833 45.7819V50.8402H24.1921V45.7819C24.1919 45.5136 24.4094 45.2961 24.6779 45.2961Z" fill="#3E4695"/>
<path d="M33.0707 50.8401V44.1624C33.0707 43.8941 32.8532 43.6766 32.5849 43.6766H28.9985C28.7302 43.6766 28.5127 43.8941 28.5127 44.1624V50.8401H33.0707Z" fill="#3CDEB9"/>
<path d="M31.1107 43.6766H28.9982C28.73 43.6766 28.5125 43.8941 28.5125 44.1624V50.8401H30.625V44.1624C30.625 43.8941 30.8425 43.6766 31.1107 43.6766Z" fill="#1EC69F"/>
<path d="M66.2629 65.9542L62.8123 62.5035C61.9548 63.7103 60.8993 64.7657 59.6926 65.6232L63.1433 69.0739L66.2629 65.9542Z" fill="#6C7FD8"/>
<path d="M73.181 75.9918C72.0033 77.1694 70.0938 77.1694 68.9162 75.9918L63.0327 70.1084C62.7165 69.7921 62.7165 69.2794 63.0327 68.9632L66.1524 65.8435C66.4687 65.5273 66.9813 65.5273 67.2976 65.8435L73.181 71.7269C74.3587 72.9046 74.3587 74.8141 73.181 75.9918Z" fill="#4F66D0"/>
<path d="M72.3518 75.9918L66.4684 70.1084C66.1521 69.7921 66.1521 69.2794 66.4684 68.9632L68.4428 66.9888L67.2974 65.8435C66.9812 65.5273 66.4685 65.5273 66.1523 65.8435L63.0326 68.9632C62.7163 69.2794 62.7163 69.7921 63.0326 70.1084L68.916 75.9918C69.9642 77.0399 71.5906 77.1527 72.7663 76.3352C72.621 76.2341 72.4813 76.1213 72.3518 75.9918Z" fill="#314DC9"/>
<path d="M52.107 68.2027C59.444 68.2027 65.3918 62.2549 65.3918 54.9179C65.3918 47.5809 59.444 41.6331 52.107 41.6331C44.77 41.6331 38.8221 47.5809 38.8221 54.9179C38.8221 62.2549 44.77 68.2027 52.107 68.2027Z" fill="#3CDEB9"/>
<path d="M42.8053 54.9179C42.8053 48.2577 47.7064 42.7432 54.0985 41.7821C53.4489 41.6845 52.784 41.6331 52.107 41.6331C44.77 41.6331 38.8221 47.5809 38.8221 54.9179C38.8221 62.2549 44.77 68.2027 52.107 68.2027C52.7839 68.2027 53.4489 68.1513 54.0985 68.0537C47.7064 67.0926 42.8053 61.5779 42.8053 54.9179Z" fill="#14B892"/>
<path d="M52.107 64.655C57.4846 64.655 61.8441 60.2956 61.8441 54.9179C61.8441 49.5403 57.4846 45.1809 52.107 45.1809C46.7294 45.1809 42.37 49.5403 42.37 54.9179C42.37 60.2956 46.7294 64.655 52.107 64.655Z" fill="white"/>
<path d="M46.3073 54.9179C46.3073 50.2148 49.6418 46.2906 54.0757 45.3803C53.44 45.2496 52.7815 45.181 52.1071 45.181C46.7295 45.181 42.3701 49.5404 42.3701 54.9181C42.3701 60.2957 46.7295 64.6551 52.1071 64.6551C52.7815 64.6551 53.44 64.5863 54.0757 64.4559C49.6418 63.5451 46.3073 59.621 46.3073 54.9179Z" fill="#F5F8F9"/>
<path d="M65.4095 46.8212L57.58 54.6507L53.4784 50.5493C53.0207 50.0916 52.2787 50.0916 51.8212 50.5493L47.4042 54.9663C48.2448 55.1479 48.8814 55.8787 48.9221 56.7629L52.65 53.0351L56.7515 57.1365C57.2092 57.5941 57.9512 57.5941 58.4087 57.1365L67.067 48.4782L65.4095 46.8212Z" fill="#3E4695"/>
<path d="M69.0626 44.3696L64.6462 45.4741C64.3629 45.5449 64.2653 45.8977 64.4717 46.1041L67.7836 49.416C67.99 49.6224 68.3428 49.5247 68.4137 49.2415L69.5183 44.8251C69.587 44.5501 69.3378 44.3008 69.0626 44.3696Z" fill="#272F7A"/>
<path d="M46.9962 58.939C48.1486 58.939 49.0828 58.0048 49.0828 56.8524C49.0828 55.7001 48.1486 54.7659 46.9962 54.7659C45.8439 54.7659 44.9097 55.7001 44.9097 56.8524C44.9097 58.0048 45.8439 58.939 46.9962 58.939Z" fill="#272F7A"/>
<path d="M35.1978 53.0276H14.86C14.2128 53.0276 13.6881 52.5029 13.6881 51.8557C13.6881 51.2085 14.2128 50.6838 14.86 50.6838H35.1978C35.845 50.6838 36.3697 51.2085 36.3697 51.8557C36.3697 52.5029 35.845 53.0276 35.1978 53.0276Z" fill="#3E4695"/>
<path d="M17.2692 57.8464H14.86C14.2128 57.8464 13.6881 57.3217 13.6881 56.6746C13.6881 56.0274 14.2128 55.5027 14.86 55.5027H17.2692C17.9164 55.5027 18.4411 56.0274 18.4411 56.6746C18.4411 57.3217 17.9164 57.8464 17.2692 57.8464Z" fill="#3E4695"/>
<path d="M17.2692 62.1702H14.86C14.2128 62.1702 13.6881 61.6455 13.6881 60.9983C13.6881 60.3511 14.2128 59.8264 14.86 59.8264H17.2692C17.9164 59.8264 18.4411 60.3511 18.4411 60.9983C18.4411 61.6455 17.9164 62.1702 17.2692 62.1702Z" fill="#3E4695"/>
<path d="M17.2692 66.4938H14.86C14.2128 66.4938 13.6881 65.9691 13.6881 65.3219C13.6881 64.6747 14.2128 64.15 14.86 64.15H17.2692C17.9164 64.15 18.4411 64.6747 18.4411 65.3219C18.4411 65.9691 17.9164 66.4938 17.2692 66.4938Z" fill="#3E4695"/>
<path d="M35.1978 57.8464H20.6118C19.9646 57.8464 19.4399 57.3217 19.4399 56.6746C19.4399 56.0274 19.9646 55.5027 20.6118 55.5027H35.1978C35.8449 55.5027 36.3696 56.0274 36.3696 56.6746C36.3696 57.3217 35.8449 57.8464 35.1978 57.8464Z" fill="#3E4695"/>
<path d="M35.1978 62.1702H20.6118C19.9646 62.1702 19.4399 61.6455 19.4399 60.9983C19.4399 60.3511 19.9646 59.8264 20.6118 59.8264H35.1978C35.8449 59.8264 36.3696 60.3511 36.3696 60.9983C36.3696 61.6455 35.8449 62.1702 35.1978 62.1702Z" fill="#3E4695"/>
<path d="M35.1978 66.4938H20.6118C19.9646 66.4938 19.4399 65.9691 19.4399 65.3219C19.4399 64.6747 19.9646 64.15 20.6118 64.15H35.1978C35.8449 64.15 36.3696 64.6747 36.3696 65.3219C36.3696 65.9691 35.8449 66.4938 35.1978 66.4938Z" fill="#3E4695"/>
<path d="M75.6611 23.095H22.1514C21.222 23.095 20.4688 22.3416 20.4688 21.4123V1.68266C20.4688 0.753438 21.2222 0 22.1514 0H75.6611C76.5903 0 77.3438 0.753438 77.3438 1.68266V21.4122C77.3438 22.3416 76.5903 23.095 75.6611 23.095Z" fill="#3E4695"/>
<path d="M26.875 21.4122V1.68266C26.875 0.753438 27.6284 0 28.5577 0H22.1514C21.2222 0 20.4688 0.753438 20.4688 1.68266V21.4122C20.4688 22.3416 21.2222 23.0948 22.1514 23.0948H28.5577C27.6284 23.095 26.875 22.3416 26.875 21.4122Z" fill="#272F7A"/>
<path d="M32.3779 4.62219C28.2491 4.81015 24.9841 8.31094 25.178 12.5289C25.3561 16.4008 28.4988 19.5433 32.3705 19.7214C36.5885 19.9155 40.0891 16.6503 40.2772 12.5216C40.2858 12.3312 40.1336 12.1719 39.9432 12.1719H33.0608C32.8766 12.1719 32.7274 12.0227 32.7274 11.8384V4.95609C32.7275 4.76562 32.568 4.61344 32.3779 4.62219Z" fill="#3CDEB9"/>
<path d="M35.843 17.7558C31.9712 17.5777 28.8287 14.435 28.6505 10.5633C28.5476 8.32515 29.4187 6.28921 30.8757 4.84265C27.4871 5.69609 25.0082 8.83781 25.178 12.5287C25.3562 16.4006 28.4988 19.5431 32.3705 19.7212C34.5888 19.8233 36.6077 18.9678 38.0518 17.5339C37.3493 17.7109 36.6082 17.7909 35.843 17.7558Z" fill="#1EC69F"/>
<path d="M41.6729 10.4422C41.8634 10.4422 42.0156 10.2828 42.007 10.0925C41.9082 7.92497 40.8967 5.9956 39.3476 4.67966C38.1121 3.63013 36.5348 2.97091 34.806 2.89231C34.6162 2.88372 34.4573 3.03622 34.4573 3.22622V10.1086C34.4573 10.2928 34.6065 10.442 34.7907 10.442L41.6729 10.4422Z" fill="#14B892"/>
<path d="M37.0313 10.1087V3.33528C36.3316 3.08185 35.5842 2.92778 34.8058 2.89231C34.6159 2.88372 34.457 3.03622 34.457 3.22622V10.1086C34.457 10.2928 34.6063 10.442 34.7905 10.442H37.3645C37.1805 10.4422 37.0313 10.2929 37.0313 10.1087Z" fill="#3CDEB9"/>
<path d="M49.3209 16.5264V11.9893C49.3209 11.3421 48.7962 10.8174 48.149 10.8174C47.5019 10.8174 46.9772 11.3421 46.9772 11.9893V16.5264H49.3209Z" fill="#3CDEB9"/>
<path d="M53.6117 16.5264V5.42676C53.6117 4.77957 53.087 4.25488 52.4398 4.25488C51.7926 4.25488 51.2679 4.77957 51.2679 5.42676V16.5264H53.6117Z" fill="#14B892"/>
<path d="M57.9026 16.5264V7.95081C57.9026 7.30362 57.3779 6.77893 56.7307 6.77893C56.0835 6.77893 55.5588 7.30362 55.5588 7.95081V16.5264H57.9026Z" fill="#3CDEB9"/>
<path d="M62.1936 16.5264V11.9893C62.1936 11.3421 61.6689 10.8174 61.0217 10.8174C60.3745 10.8174 59.8499 11.3421 59.8499 11.9893V16.5264H62.1936Z" fill="#14B892"/>
<path d="M66.4844 16.5264V7.95081C66.4844 7.30362 65.9597 6.77893 65.3125 6.77893C64.6653 6.77893 64.1406 7.30362 64.1406 7.95081V16.5264H66.4844Z" fill="#14B892"/>
<path d="M70.7751 16.5265V13.5037C70.7751 12.8565 70.2505 12.3318 69.6033 12.3318C68.9561 12.3318 68.4314 12.8565 68.4314 13.5037V16.5265H70.7751Z" fill="#3CDEB9"/>
<path d="M72.7584 18.714H44.9939C44.3467 18.714 43.822 18.1893 43.822 17.5421C43.822 16.8949 44.3467 16.3702 44.9939 16.3702H72.7583C73.4055 16.3702 73.9301 16.8949 73.9301 17.5421C73.9301 18.1893 73.4056 18.714 72.7584 18.714Z" fill="#272F7A"/>
<path d="M59.9237 32.9688C60.5709 32.9688 61.0956 32.4441 61.0956 31.7969C61.0956 31.1497 60.5709 30.625 59.9237 30.625C59.2765 30.625 58.7518 31.1497 58.7518 31.7969C58.7518 32.4441 59.2765 32.9688 59.9237 32.9688Z" fill="#3CDEB9"/>
<path d="M63.3612 32.9688C64.0084 32.9688 64.5331 32.4441 64.5331 31.7969C64.5331 31.1497 64.0084 30.625 63.3612 30.625C62.714 30.625 62.1893 31.1497 62.1893 31.7969C62.1893 32.4441 62.714 32.9688 63.3612 32.9688Z" fill="#14B892"/>
<path d="M66.7987 32.9688C67.4459 32.9688 67.9706 32.4441 67.9706 31.7969C67.9706 31.1497 67.4459 30.625 66.7987 30.625C66.1515 30.625 65.6268 31.1497 65.6268 31.7969C65.6268 32.4441 66.1515 32.9688 66.7987 32.9688Z" fill="#14B892"/>
<path d="M73.0469 4.6875C73.6941 4.6875 74.2188 4.16283 74.2188 3.51562C74.2188 2.86842 73.6941 2.34375 73.0469 2.34375C72.3997 2.34375 71.875 2.86842 71.875 3.51562C71.875 4.16283 72.3997 4.6875 73.0469 4.6875Z" fill="#0172FB"/>
<path d="M69.6094 4.6875C70.2566 4.6875 70.7812 4.16283 70.7812 3.51562C70.7812 2.86842 70.2566 2.34375 69.6094 2.34375C68.9622 2.34375 68.4375 2.86842 68.4375 3.51562C68.4375 4.16283 68.9622 4.6875 69.6094 4.6875Z" fill="#0172FB"/>
</g>
<defs>
<clipPath id="clip0_725_2702">
<rect width="80" height="80" fill="white"/>
</clipPath>
</defs>
</svg>
