<svg width="77" height="74" viewBox="0 0 77 74" fill="none" xmlns="http://www.w3.org/2000/svg">
<path d="M36.4397 72.8795C56.5648 72.8795 72.8795 56.5648 72.8795 36.4397C72.8795 16.3146 56.5648 0 36.4397 0C16.3146 0 0 16.3146 0 36.4397C0 56.5648 16.3146 72.8795 36.4397 72.8795Z" fill="#16AF8C"/>
<path d="M40.4397 73.8795C60.5648 73.8795 76.8795 57.5648 76.8795 37.4397C76.8795 17.3146 60.5648 1 40.4397 1C20.3146 1 4 17.3146 4 37.4397C4 57.5648 20.3146 73.8795 40.4397 73.8795Z" fill="#1EC69F"/>
<path d="M55.4166 32.5563C58.0548 32.5563 60.1935 30.4176 60.1935 27.7794C60.1935 25.1411 58.0548 23.0024 55.4166 23.0024C52.7783 23.0024 50.6396 25.1411 50.6396 27.7794C50.6396 30.4176 52.7783 32.5563 55.4166 32.5563Z" fill="#272F7A"/>
<path d="M55.416 32.5563V23.0024C58.0503 23.0024 60.1929 25.1451 60.1929 27.7794C60.1929 30.4136 58.0503 32.5563 55.416 32.5563Z" fill="#3E4695"/>
<path d="M62.3648 41.371V50.7659C62.3648 52.2189 61.1784 53.401 59.7193 53.401H50.558C49.8389 53.401 49.2552 52.8173 49.2552 52.0982C49.2552 50.8316 48.5552 44.4142 48.5552 41.371C48.5552 38.1392 51.2007 35.5093 54.4525 35.5093H56.4675C59.7193 35.5093 62.3648 38.1392 62.3648 41.371Z" fill="#272F7A"/>
<path d="M62.3643 41.371V50.7659C62.3643 52.2189 61.1778 53.401 59.7187 53.401H55.416V35.5093H56.4669C59.7187 35.5093 62.3643 38.1392 62.3643 41.371Z" fill="#3E4695"/>
<path d="M24.8443 32.5563C27.4825 32.5563 29.6212 30.4176 29.6212 27.7794C29.6212 25.1411 27.4825 23.0024 24.8443 23.0024C22.2061 23.0024 20.0674 25.1411 20.0674 27.7794C20.0674 30.4176 22.2061 32.5563 24.8443 32.5563Z" fill="#272F7A"/>
<path d="M24.8447 32.5563V23.0024C27.479 23.0024 29.6216 25.1451 29.6216 27.7794C29.6216 30.4136 27.479 32.5563 24.8447 32.5563Z" fill="#3E4695"/>
<path d="M31.7056 41.371C31.7056 44.5119 31.0056 50.7741 31.0056 52.0982C31.0056 52.8173 30.4219 53.401 29.7028 53.401H20.4503C19.0416 53.401 17.896 52.2598 17.896 50.8562V41.371C17.896 38.1392 20.5415 35.5093 23.7933 35.5093H25.8083C29.0601 35.5093 31.7056 38.1392 31.7056 41.371Z" fill="#272F7A"/>
<path d="M31.7061 41.371C31.7061 44.5119 31.0061 50.7741 31.0061 52.0982C31.0061 52.8173 30.4224 53.401 29.7033 53.401H24.8447V35.5093H25.8088C29.0606 35.5093 31.7061 38.1392 31.7061 41.371Z" fill="#3E4695"/>
<path d="M40.1304 32.5563C44.3036 32.5563 47.6866 29.1732 47.6866 25.0001C47.6866 20.8269 44.3036 17.4438 40.1304 17.4438C35.9573 17.4438 32.5742 20.8269 32.5742 25.0001C32.5742 29.1732 35.9573 32.5563 40.1304 32.5563Z" fill="#C57A44"/>
<path d="M40.1304 32.5563V17.4438C44.2967 17.4438 47.6866 20.8337 47.6866 25.0001C47.6866 29.1664 44.2967 32.5563 40.1304 32.5563Z" fill="#D88A55"/>
<path d="M51.8556 46.0202V53.1387C51.8556 54.8158 50.4911 56.1803 48.814 56.1803H31.4469C29.7697 56.1803 28.4053 54.8158 28.4053 53.1387V46.0202C28.4053 40.2245 33.1205 35.5093 38.9162 35.5093H41.3446C47.1403 35.5093 51.8556 40.2245 51.8556 46.0202Z" fill="#C57A44"/>
<path d="M51.8555 46.0202V53.1387C51.8555 54.8158 50.4911 56.1803 48.8139 56.1803H40.1304V35.5093H41.3446C47.1403 35.5093 51.8555 40.2245 51.8555 46.0202Z" fill="#D88A55"/>
</svg>
