<svg width="80" height="80" viewBox="0 0 80 80" fill="none" xmlns="http://www.w3.org/2000/svg">
<g clip-path="url(#clip0_725_2784)">
<circle cx="37.5548" cy="48.0702" r="31.9298" fill="#3EECC4"/>
<path d="M30.3751 67.0646C29.2393 66.8374 28.5027 65.7327 28.7299 64.5971L31.8052 49.2187C32.0323 48.0831 33.1371 47.3464 34.2728 47.5736H34.2729C35.4085 47.8006 36.1451 48.9055 35.918 50.0411L32.8426 65.4196C32.6154 66.5552 31.5107 67.2918 30.3751 67.0646Z" fill="#3E4695"/>
<path d="M66.4584 27.957H49.0366L62.7041 3.10725C63.4727 1.70979 62.4617 0 60.8668 0H35.7051C34.8189 0 34.0285 0.557114 33.7304 1.3916L19.7518 40.5315C19.2642 41.8969 20.2765 43.3335 21.7265 43.3335H41.5398L36.4441 69.0662C36.0049 71.2841 38.9033 72.5307 40.2114 70.6865L68.1686 31.2669C69.1533 29.8783 68.1606 27.957 66.4584 27.957Z" fill="#272F7A"/>
<path d="M66.4585 27.957H49.0367L62.7043 3.10725C63.4729 1.70979 62.4619 0 60.867 0H42.6954V67.1839L68.1687 31.2669C69.1535 29.8783 68.1608 27.957 66.4585 27.957Z" fill="#3E4695"/>
<path d="M12.6314 41.7632C11.5407 41.3737 10.9724 40.1737 11.3619 39.083L20.3491 13.9185C20.7386 12.8278 21.9385 12.2595 23.0292 12.649C24.12 13.0385 24.6883 14.2384 24.2988 15.3291L15.3116 40.4936C14.9221 41.5844 13.7222 42.1528 12.6314 41.7632Z" fill="#3E4695"/>
<path d="M61.7428 17.9152C60.728 17.3569 60.3578 16.0819 60.916 15.0671L68.6053 1.08682C69.1634 0.0719968 70.4386 -0.298201 71.4534 0.260031C72.4682 0.818124 72.8383 2.09326 72.2802 3.10809L64.5909 17.0884C64.0327 18.103 62.7575 18.4732 61.7428 17.9152Z" fill="#3E4695"/>
<path d="M47.6064 71.1996C46.6576 70.5351 46.4272 69.2275 47.0915 68.2788L57.0777 54.0188C57.742 53.0701 59.0496 52.8397 59.9983 53.504L59.9984 53.5042C60.9471 54.1685 61.1775 55.4761 60.5132 56.4248L50.5271 70.6848C49.8626 71.6334 48.555 71.8639 47.6064 71.1996Z" fill="#3E4695"/>
<path d="M65.842 45.3567C64.8995 44.6834 64.6812 43.3737 65.3544 42.4313L70.3474 35.441C71.0206 34.4986 72.3303 34.2804 73.2727 34.9535H73.2728C74.2152 35.6267 74.4335 36.9363 73.7603 37.8788L68.7673 44.869C68.0941 45.8116 66.7844 46.0298 65.842 45.3567Z" fill="#3E4695"/>
</g>
<defs>
<clipPath id="clip0_725_2784">
<rect width="80" height="80" fill="white"/>
</clipPath>
</defs>
</svg>
