<svg width="76" height="76" viewBox="0 0 76 76" fill="none" xmlns="http://www.w3.org/2000/svg">
<g clip-path="url(#clip0_1971_104)">
<path d="M37.9558 75.9116C58.9182 75.9116 75.9116 58.9182 75.9116 37.9558C75.9116 16.9934 58.9182 0 37.9558 0C16.9934 0 0 16.9934 0 37.9558C0 58.9182 16.9934 75.9116 37.9558 75.9116Z" fill="#1EC69F"/>
<path d="M40.125 75.8484C58.6643 74.8041 73.6447 60.4556 75.6752 42.1966L61.9559 28.4774L51.0402 34.652L33.8682 17.4801L22.0672 32.2898L17.6904 43.7529L30.2667 56.3292L29.3893 65.1124L40.125 75.8484Z" fill="#0B9676"/>
<path d="M32.4445 16.9168C32.4445 16.9168 28.0531 18.1377 26.0824 14.7961C24.1117 11.4546 21.8411 16.9168 21.8411 16.9168C21.8411 16.9168 24.2616 19.1019 23.9618 21.158C23.662 23.2143 26.3822 24.6282 23.9618 27.5201C21.5413 30.412 16.3571 30.9902 17.5997 33.8821C18.8422 36.7739 18.4138 37.3523 15.4791 38.1234C12.5443 38.8945 18.4138 45.578 19.7204 44.4855C21.0272 43.393 20.8558 41.3365 21.841 42.3648C22.8264 43.393 18.7992 46.2207 28.203 63.5717C28.203 63.5717 30.0451 67.749 32.4443 63.5717C34.8435 59.3945 33.0654 55.6673 34.5649 52.9681C36.0645 50.2691 50.1596 44.7424 49.4098 42.3645C48.66 39.9866 44.8898 34.5886 47.2892 33.8815C49.6884 33.1746 49.9026 35.5523 51.5306 36.0022C53.1587 36.452 54.3368 35.2953 51.5306 40.2434C51.5306 40.2434 55.172 43.7136 55.7719 42.3641C56.3717 41.0146 56.65 38.0583 57.8925 36.002C59.135 33.9454 60.5702 31.8248 62.1339 31.7608C63.6977 31.6966 62.3051 25.72 57.8925 27.5194C53.48 29.3187 51.1875 33.3032 49.4095 31.7608C47.6317 30.2185 47.3959 34.1385 45.1682 33.8814C42.9404 33.6243 31.3301 32.2748 34.5646 27.5194C34.5646 27.5194 29.2735 24.5631 30.3232 23.2781C31.3729 21.9926 32.6151 23.2781 32.4439 21.1575C32.2729 19.0376 35.7647 17.1098 32.4445 16.9168Z" fill="#E6F3FF"/>
<path d="M57.8927 27.5203C53.4799 29.3197 51.1878 33.3041 49.4098 31.7616C47.6319 30.2193 47.3962 34.1395 45.1685 33.8822C43.8441 33.7294 39.2037 33.1903 36.3374 31.7792V51.3415C40.5051 48.4484 50.0297 44.331 49.4098 42.3652C48.6601 39.9875 44.8898 34.5893 47.2891 33.8822C49.6884 33.1753 49.9026 35.553 51.5304 36.0029C53.1583 36.4527 54.3366 35.2959 51.5304 40.2441C51.5304 40.2441 55.1718 43.7143 55.7718 42.3648C56.3717 41.0153 56.65 38.059 57.8924 36.0027C59.1349 33.9461 60.5701 31.8255 62.1337 31.7614C63.6979 31.6975 62.3054 25.721 57.8927 27.5203Z" fill="#CFDBE6"/>
<path d="M34.5646 27.5203C34.5646 27.5203 29.2735 24.5641 30.3233 23.2791C31.3731 21.9936 32.6152 23.2791 32.444 21.1584C32.2727 19.0378 35.7642 17.1098 32.444 16.9172C32.444 16.9172 28.0527 18.1381 26.0819 14.7965C24.1112 11.4549 21.8407 16.917 21.8407 16.917C21.8407 16.917 24.2611 19.1021 23.9613 21.1583C23.6615 23.2149 26.3817 24.6284 23.9613 27.5203C23.0953 28.5549 21.8761 29.2928 20.7236 29.9471H34.196C33.8684 29.2578 33.9287 28.4553 34.5646 27.5203Z" fill="#E09112"/>
<path d="M28.2028 63.5723C28.2028 63.5723 30.0448 67.7495 32.444 63.5723C34.8433 59.3951 33.0651 55.6678 34.5647 52.9687C35.3629 51.5323 39.729 49.2945 43.5261 47.157H21.8979C22.2507 50.1946 23.6584 55.1875 28.2028 63.5723Z" fill="#66B31B"/>
<path d="M36.3374 47.1573V51.3421C38.1468 50.0859 40.9652 48.5991 43.526 47.1573H36.3374Z" fill="#599B13"/>
</g>
<defs>
<clipPath id="clip0_1971_104">
<rect width="75.9116" height="75.9116" fill="white"/>
</clipPath>
</defs>
</svg>
