<svg width="51" height="57" viewBox="0 0 51 57" fill="none" xmlns="http://www.w3.org/2000/svg">
<path d="M34.2308 37.8391L29.9404 42.8707L42.1612 56.3845L50.9865 56.3739V56.3676L43.282 43.9851L34.2308 37.8391Z" fill="#E2E1F4"/>
<path d="M50.9995 46.6086L38.5187 32.8074L34.2285 37.8392L50.9842 56.3676L50.9995 46.6086Z" fill="#ACA6D6"/>
<path d="M47.4902 22.3125C43.0691 17.4237 36.2404 16.7818 31.1862 20.3853L23.9585 12.3929L11.2178 26.4817L18.4455 34.4743C15.1866 40.0627 15.7676 47.6143 20.1883 52.503L22.6584 55.2345L49.9602 25.0442L47.4902 22.3125Z" fill="#FFDD46"/>
<path d="M49.9601 25.044L47.4899 22.3125C43.0688 17.4237 36.2401 16.7818 31.186 20.3853L23.9583 12.3929L17.5879 19.4373L36.309 40.1392L49.9601 25.044Z" fill="#FFB54C"/>
<path d="M0 24.2239L7.80043 32.8498L18.7596 20.7312L16.1626 15.4197L10.9591 12.1055L0 24.2239Z" fill="#463B84"/>
<path d="M10.9561 12.1068L21.9045 9.02647e-07L29.7038 8.6245L18.7554 20.7313L10.9561 12.1068Z" fill="#392E6E"/>
</svg>
