<svg width="53" height="53" viewBox="0 0 53 53" fill="none" xmlns="http://www.w3.org/2000/svg">
<g clip-path="url(#clip0_1479_224)">
<path d="M2.26834 37.9111C1.74654 37.9111 1.23985 37.8354 0.755859 37.6916V50.3889H7.56204V34.7274L6.10249 36.2625C5.11181 37.3137 3.71277 37.9111 2.26834 37.9111ZM9.07452 50.3889H15.8807V25.97L9.07452 33.1316V50.3889ZM23.4204 32.1335L17.3932 25.8944V50.3889H24.1994V32.7988C23.9196 32.6022 23.6624 32.383 23.4204 32.1335ZM27.2319 33.7517C26.7102 33.7517 26.2033 33.6761 25.7118 33.525V50.3891H32.5181V30.5906L31.0435 32.1259C30.0527 33.1544 28.6613 33.7517 27.2319 33.7517ZM34.0306 29.0175V50.3889H40.8367V21.9317L34.0306 29.0175ZM46.1001 16.4565L42.3492 20.3587V50.3889H49.1553V19.3907L46.1001 16.4565Z" fill="#3E4695"/>
<path d="M49.2703 15.3086L46.0117 12.1777L28.8601 30.0296C28.4336 30.4742 27.8438 30.726 27.2274 30.7269H27.2244C26.6089 30.7269 26.0197 30.4764 25.5924 30.0341L16.6506 20.7724L3.91316 34.1798C3.46776 34.6494 2.8681 34.8862 2.26833 34.8862C1.70727 34.8862 1.14531 34.6797 0.705916 34.2622C-0.202353 33.3994 -0.239387 31.9632 0.624286 31.0551L14.9929 15.9302C15.4187 15.4818 16.01 15.2261 16.6286 15.2239C16.6316 15.2239 16.6346 15.2239 16.6377 15.2239C17.2533 15.2239 17.8425 15.4743 18.2696 15.9167L27.2205 25.1882L42.741 9.03475L39.4822 5.90391L52.5198 2.13104L49.2703 15.3086Z" fill="#088671"/>
</g>
<defs>
<clipPath id="clip0_1479_224">
<rect width="52.52" height="52.52" fill="white"/>
</clipPath>
</defs>
</svg>
