<svg width="51" height="61" viewBox="0 0 51 61" fill="none" xmlns="http://www.w3.org/2000/svg">
<path d="M25.3611 0C17.8401 0 10.7449 7.50863 4.48157 5.46616C3.749 5.22728 2.95713 5.63622 2.69643 6.36124C0.953538 11.2081 0 16.4312 0 21.8783C0 39.5797 10.0238 52.4026 24.7034 59.9834C25.1149 60.196 25.6078 60.196 26.0192 59.9834C40.6989 52.4026 50.7227 39.5797 50.7227 21.8783C50.7227 16.4312 49.7688 11.2081 48.0262 6.36124C47.7655 5.63622 46.9737 5.22728 46.2411 5.46616C39.9772 7.50863 32.8817 0 25.3611 0Z" fill="#1EC69F"/>
<path d="M21.6014 43.7149C14.0052 41.9978 8.3142 35.1988 8.3142 27.091C8.3142 22.8841 9.84898 19.0314 12.384 16.0549C12.5401 11.6553 13.318 7.41487 14.6287 3.41553C11.0669 5.07339 7.66638 6.50468 4.48157 5.46611C3.749 5.22723 2.95713 5.63617 2.69643 6.36119C0.953538 11.2081 0 16.4311 0 21.8783C0 39.5797 10.0238 52.4026 24.7034 59.9834C25.1149 60.1959 25.6078 60.1959 26.0192 59.9834C29.1184 58.3828 32.007 56.546 34.6408 54.4814C29.5758 51.557 25.1487 47.9616 21.6014 43.7149Z" fill="#14B892"/>
<path d="M25.3601 42.0398C33.6162 42.0398 40.3091 35.3469 40.3091 27.0908C40.3091 18.8347 33.6162 12.1418 25.3601 12.1418C17.104 12.1418 10.4111 18.8347 10.4111 27.0908C10.4111 35.3469 17.104 42.0398 25.3601 42.0398Z" fill="#3E4695"/>
<path d="M21.0039 27.0908C21.0039 20.7002 25.0152 15.2492 30.6565 13.1108C29.0098 12.4865 27.2255 12.1418 25.3601 12.1418C17.1041 12.1418 10.4111 18.8348 10.4111 27.0908C10.4111 35.3469 17.1041 42.0398 25.3601 42.0398C27.2255 42.0398 29.0098 41.6952 30.6565 41.0709C25.0152 38.9325 21.0039 33.4815 21.0039 27.0908Z" fill="#272F7A"/>
<path d="M25.361 44.1376C15.9615 44.1376 8.31445 36.4906 8.31445 27.0908C8.31445 17.691 15.9615 10.0439 25.361 10.0439C34.7605 10.0439 42.4079 17.691 42.4079 27.0908C42.4079 36.4906 34.7608 44.1376 25.361 44.1376ZM25.361 14.2399C18.275 14.2399 12.5102 20.0048 12.5102 27.0911C12.5102 34.1773 18.275 39.9422 25.361 39.9422C32.4473 39.9422 38.2122 34.1773 38.2122 27.0911C38.2122 20.0048 32.4473 14.2399 25.361 14.2399Z" fill="white"/>
<path d="M24.3499 33.6638C23.7935 33.6638 23.2601 33.4428 22.8663 33.0492L16.6857 26.8687C15.8665 26.0494 15.8665 24.7211 16.6857 23.9021C17.5056 23.0828 18.8337 23.0828 19.6527 23.9021L24.3496 28.5993L31.0683 21.8806C31.8879 21.0613 33.216 21.0613 34.0352 21.8806C34.8545 22.6999 34.8545 24.0282 34.0352 24.8472L25.8332 33.0492C25.4399 33.4428 24.9062 33.6638 24.3499 33.6638Z" fill="white"/>
</svg>
