<svg width="53" height="53" viewBox="0 0 53 53" fill="none" xmlns="http://www.w3.org/2000/svg">
<g clip-path="url(#clip0_1479_147)">
<path d="M47.1348 5.38085C43.6646 1.9111 39.051 -6.10352e-05 34.1436 -6.10352e-05C29.2363 -6.10352e-05 24.6231 1.9111 21.1529 5.38085C17.6828 8.851 15.772 13.4646 15.772 18.372C15.772 22.7628 17.3021 26.9185 20.1096 30.23L16.395 33.9446C14.4907 32.9629 12.0887 33.269 10.4945 34.8633L1.48233 43.8758C0.52635 44.8318 -0.00012207 46.1027 -0.00012207 47.4545C-0.00012207 48.8064 0.52635 50.0773 1.48233 51.0333C2.46917 52.0197 3.76491 52.5133 5.06106 52.5133C6.35721 52.5133 7.65295 52.0197 8.63979 51.0333L17.6523 42.0207C18.6083 41.0652 19.1348 39.7943 19.1348 38.442C19.1348 37.6203 18.9401 36.8281 18.5726 36.119L22.2856 32.4056C25.5975 35.2135 29.7532 36.7436 34.144 36.7436C39.0514 36.7436 43.665 34.8324 47.1348 31.3627C50.6045 27.8925 52.5157 23.2793 52.5157 18.3716C52.5157 13.4646 50.6045 8.851 47.1348 5.38085ZM15.4763 39.8451L6.46379 48.8577C5.6905 49.6309 4.43162 49.6309 3.65794 48.8577C3.28332 48.4826 3.07697 47.9846 3.07697 47.4545C3.07697 46.9245 3.28332 46.4264 3.65794 46.0514L12.6705 37.0393C13.4437 36.2656 14.7026 36.2656 15.4763 37.0393C16.25 37.813 16.25 39.0715 15.4763 39.8451ZM44.9587 29.1867C42.07 32.0755 38.2292 33.6665 34.1436 33.6665C30.0585 33.6665 26.2177 32.0755 23.3289 29.1867C20.4401 26.2979 18.8491 22.4571 18.8491 18.372C18.8491 14.2864 20.4401 10.4456 23.3289 7.55686C26.2177 4.66807 30.0585 3.07704 34.1436 3.07704C38.2292 3.07704 42.07 4.66807 44.9587 7.55686C47.8475 10.4456 49.4386 14.2864 49.4386 18.3716C49.4386 22.4571 47.8475 26.2979 44.9587 29.1867Z" fill="#3E4695"/>
<path d="M26.3482 18.4744C25.4988 18.4744 24.8097 19.1632 24.8097 20.013V24.9367C24.8097 25.7865 25.4988 26.4753 26.3482 26.4753C27.198 26.4753 27.8868 25.7865 27.8868 24.9367V20.013C27.8868 19.1632 27.198 18.4744 26.3482 18.4744Z" fill="#F58232"/>
<path d="M31.4769 13.346C30.6275 13.346 29.9384 14.0347 29.9384 14.8845V24.9368C29.9384 25.7866 30.6275 26.4753 31.4769 26.4753C32.3267 26.4753 33.0155 25.7866 33.0155 24.9368V14.8845C33.0155 14.0347 32.3267 13.346 31.4769 13.346Z" fill="#F58232"/>
<path d="M36.6054 15.3969C35.756 15.3969 35.0669 16.0856 35.0669 16.9354V24.9363C35.0669 25.7861 35.756 26.4748 36.6054 26.4748C37.4553 26.4748 38.144 25.7861 38.144 24.9363V16.9354C38.144 16.0856 37.4553 15.3969 36.6054 15.3969Z" fill="#F58232"/>
<path d="M41.7339 10.2684C40.8845 10.2684 40.1953 10.9572 40.1953 11.807V24.9363C40.1953 25.7861 40.8845 26.4749 41.7339 26.4749C42.5837 26.4749 43.2724 25.7861 43.2724 24.9363V11.807C43.2724 10.9572 42.5837 10.2684 41.7339 10.2684Z" fill="#F58232"/>
</g>
<defs>
<clipPath id="clip0_1479_147">
<rect width="52.5158" height="52.5158" fill="white"/>
</clipPath>
</defs>
</svg>
