<svg width="80" height="80" viewBox="0 0 80 80" fill="none" xmlns="http://www.w3.org/2000/svg">
<path d="M39.8557 76.2957C59.9809 76.2957 76.2955 59.9811 76.2955 39.856C76.2955 19.7309 59.9809 3.41626 39.8557 3.41626C19.7306 3.41626 3.41602 19.7309 3.41602 39.856C3.41602 59.9811 19.7306 76.2957 39.8557 76.2957Z" fill="#1EC69F"/>
<path opacity="0.1" d="M76.2045 37.4019C76.2557 38.2162 76.2956 39.0304 76.2956 39.856C76.2956 59.9833 59.9831 76.2957 39.8559 76.2957C38.905 76.2957 37.9656 76.2501 37.0318 76.1762L18.1344 57.2788C15.1224 54.8817 13.1865 51.1864 13.1865 47.0357C13.1865 39.8161 19.0397 33.9629 26.2593 33.9629C30.0798 33.9629 33.5131 35.6028 35.9044 38.2162L44.9119 47.2806V36.6106H52.1941L54.6937 39.1101V32.2605L50.1558 27.7226L58.3376 19.5352L76.2045 37.4019Z" fill="black"/>
<path d="M35.1255 45.4991H42.4091V60.1434H35.1255V45.4991Z" fill="#4388B9"/>
<path d="M44.9116 36.6115H52.1953V60.1434H44.9116V36.6115Z" fill="#467080"/>
<path d="M66.5259 27.723H61.9799V60.1453H54.6964V27.723H50.1548L58.3404 19.5375L66.5259 27.723Z" fill="#E6E7E8"/>
<path d="M26.26 60.113C33.4808 60.113 39.3345 54.2594 39.3345 47.0386C39.3345 39.8177 33.4808 33.9641 26.26 33.9641C19.0392 33.9641 13.1855 39.8177 13.1855 47.0386C13.1855 54.2594 19.0392 60.113 26.26 60.113Z" fill="#FEED32"/>
<path d="M26.2599 57.0743C31.8024 57.0743 36.2956 52.5811 36.2956 47.0385C36.2956 41.496 31.8024 37.0028 26.2599 37.0028C20.7173 37.0028 16.2241 41.496 16.2241 47.0385C16.2241 52.5811 20.7173 57.0743 26.2599 57.0743Z" fill="#F2BC19"/>
<path d="M28.9545 44.929L28.6236 46.1502H22.4386L22.7742 44.929H28.9545ZM25.8457 52.144L22.5831 48.2196L22.5784 47.1849H24.1911C24.5764 47.1849 24.898 47.1212 25.1559 46.9938C25.4169 46.8633 25.6142 46.6815 25.7478 46.4485C25.8845 46.2123 25.9529 45.9358 25.9529 45.6188C25.9529 45.1434 25.8131 44.7612 25.5334 44.4723C25.2538 44.1833 24.8063 44.0388 24.1911 44.0388H22.4386L22.8022 42.5986H24.1911C24.9741 42.5986 25.622 42.7198 26.1347 42.9621C26.6505 43.2014 27.0358 43.5401 27.2906 43.9782C27.5485 44.4163 27.6774 44.929 27.6774 45.5163C27.6774 46.0352 27.5827 46.4982 27.3931 46.9052C27.2036 47.3123 26.9053 47.6463 26.4982 47.9073C26.0912 48.1683 25.5583 48.3423 24.8995 48.4293L24.8436 48.448L27.7893 52.0601V52.144H25.8457ZM28.9638 42.5986L28.6236 43.8384L23.6085 43.8197L23.9487 42.5986H28.9638Z" fill="black"/>
</svg>
