<svg width="80" height="80" viewBox="0 0 80 80" fill="none" xmlns="http://www.w3.org/2000/svg">
<g clip-path="url(#clip0_725_2852)">
<path d="M66.2994 69.534C73.6774 62.5559 78.2814 52.6753 78.2814 41.7185C78.2814 20.5764 61.1422 3.43713 40 3.43713C18.8578 3.43713 1.71863 20.5764 1.71863 41.7185C1.71863 62.8607 18.8578 80 40 80C41.6568 80 43.2889 79.8945 44.8902 79.6904L66.2994 69.534Z" fill="#3EECC4"/>
<path d="M62.0057 57.1192C61.6698 55.8847 61.5513 54.6011 61.6557 53.3259L62.2808 47.4377C62.586 43.7431 62.0229 40.0416 60.3874 36.7148C56.1616 28.1191 57.131 27.4953 56.9998 18.9642C56.9998 17.2216 55.5869 15.8086 53.8441 15.8086C52.1013 15.8086 50.6885 17.2214 50.6885 18.9642C50.6885 53.6567 50.753 51.1109 50.5391 52.1281V56.6709C50.5391 60.4984 47.4252 63.6125 43.5977 63.6125C41.0557 63.6125 32.2893 63.6125 26.324 63.6125C28.9777 67.3031 32.6082 70.1928 36.8213 71.9427C36.8474 71.9534 36.8735 71.9644 36.8996 71.9755C40.1548 73.3503 43.7893 76.0937 44.3966 79.4977L44.4554 79.7408C53.0274 78.747 60.7354 74.923 66.621 69.2256L62.0057 57.1192Z" fill="#F9BA8F"/>
<path d="M14.6037 15.9189L13.6426 15.0284C12.1609 13.6556 9.82539 13.7446 8.45258 15.2262C7.07977 16.7079 7.16883 19.0434 8.65039 20.4162L14.6037 25.9323V15.9189Z" fill="#F9BA8F"/>
<path d="M10.6037 17.6558C9.69477 16.8136 9.31242 15.6095 9.46758 14.4622C9.09664 14.652 8.75117 14.9042 8.45258 15.2262C7.07977 16.7079 7.16883 19.0434 8.65039 20.4162L14.6037 25.9323V21.3622L10.6037 17.6558Z" fill="#FCAD6D"/>
<path d="M62.2932 57.8732C60.9897 66.8616 53.2538 73.7668 43.9041 73.7668C42.2899 73.7668 40.724 73.5607 39.2308 73.1739C41.7063 74.6875 43.9332 76.8997 44.3966 79.4975L44.4554 79.7407C53.0274 78.7469 60.7352 74.9229 66.621 69.2255L62.2932 57.8732Z" fill="#FD995B"/>
<path d="M45.2524 63.7617H19.9032C16.9055 63.7617 14.4669 61.323 14.4669 58.3253V5.43641C14.4669 2.43875 16.9055 0 19.9032 0H45.2524C48.25 0 50.6886 2.43875 50.6886 5.43641V58.3255C50.6886 61.323 48.2499 63.7617 45.2524 63.7617Z" fill="#2A428C"/>
<path d="M19.9032 0C16.9055 0 14.4669 2.43875 14.4669 5.43625V58.3253C14.4669 61.323 16.9057 63.7617 19.9032 63.7617H27.46C25.7829 62.0508 27.7391 60.3794 27.7391 60.3794C24.9786 59.6552 25.213 56.7541 25.213 56.7541C25.213 56.7541 25.213 12.4187 25.213 9.64531C25.213 6.87187 28.0302 6.17141 28.0302 6.17141C26.9205 5.06172 28.0302 3.89562 28.0302 3.89562V2.01672C27.0066 1.36797 27.2082 0.484688 27.431 0L19.9032 0Z" fill="#142766"/>
<path d="M28.573 3.89579H28.0302C27.5113 3.89579 27.0907 3.47516 27.0907 2.95625C27.0907 2.43735 27.5113 2.01672 28.0302 2.01672H28.573C29.0919 2.01672 29.5126 2.43735 29.5126 2.95625C29.5126 3.47516 29.0919 3.89579 28.573 3.89579Z" fill="#3C58A0"/>
<path d="M36.9956 3.89579H31.7796C31.2607 3.89579 30.8401 3.47516 30.8401 2.95625C30.8401 2.43735 31.2607 2.01672 31.7796 2.01672H36.9956C37.5145 2.01672 37.9351 2.43735 37.9351 2.95625C37.9351 3.47516 37.5145 3.89579 36.9956 3.89579Z" fill="#3C58A0"/>
<path d="M45.2524 3.3822H41.4426C40.7322 3.3822 40.1566 3.95798 40.1566 4.66814C40.1566 5.49486 39.4802 6.17142 38.6535 6.17142H26.5024C25.6757 6.17142 24.9991 5.49501 24.9991 4.66814C24.9991 3.95798 24.4233 3.3822 23.7132 3.3822H19.9032C18.7688 3.3822 17.8491 4.30189 17.8491 5.43626V58.3253C17.8491 59.4597 18.7688 60.3794 19.9032 60.3794H45.2524C46.3868 60.3794 47.3065 59.4597 47.3065 58.3253C47.3065 52.8849 47.3065 6.8883 47.3065 5.43626C47.3065 4.30189 46.3868 3.3822 45.2524 3.3822Z" fill="#3EECC4"/>
<path d="M27.739 60.3795C27.3483 58.694 29.3033 58.3003 29.3033 58.3003C29.3033 58.3003 30.5468 47.4083 29.3033 46.1648C28.0599 44.9214 29.3033 43.7472 29.3033 43.7472C29.3033 43.7472 30.6618 32.9703 29.3033 31.6117C27.9449 30.2533 29.3033 29.194 29.3033 29.194V17.0586C26.8702 15.5223 28.1501 13.3119 28.1501 13.3119V9.83139C26.3115 7.99279 28.0294 6.17217 28.0301 6.17154H26.5022C25.6755 6.17154 24.999 5.49514 24.999 4.66826C24.999 3.95811 24.4232 3.38232 23.713 3.38232H19.9032C18.7688 3.38232 17.8491 4.30186 17.8491 5.43639V58.3256C17.8491 59.46 18.7688 60.3797 19.9032 60.3797H27.739V60.3795Z" fill="#3CDEB9"/>
<path d="M24.9356 13.3117H40.2198C41.1809 13.3117 41.96 12.5327 41.96 11.5716C41.96 10.6105 41.1809 9.83142 40.2198 9.83142H24.9356C23.9745 9.83142 23.1953 10.6105 23.1953 11.5716C23.1953 12.5328 23.9745 13.3117 24.9356 13.3117Z" fill="#E9EFFF"/>
<path d="M24.9357 9.83142H28.1501V13.3119H24.9357C23.9746 13.3119 23.1956 12.5328 23.1956 11.5717C23.1954 10.6103 23.9746 9.83142 24.9357 9.83142Z" fill="#9BD8F9"/>
<path d="M43.3085 29.1939H21.8471C20.9861 29.1939 20.2817 28.4896 20.2817 27.6286V18.6238C20.2817 17.7628 20.9861 17.0585 21.8471 17.0585H43.3085C44.1694 17.0585 44.8738 17.7628 44.8738 18.6238V27.6286C44.8738 28.4896 44.1694 29.1939 43.3085 29.1939Z" fill="#E9EFFF"/>
<path d="M43.3085 43.747H21.8471C20.9861 43.747 20.2817 43.0427 20.2817 42.1817V33.1769C20.2817 32.3159 20.9861 31.6116 21.8471 31.6116H43.3085C44.1694 31.6116 44.8738 32.3159 44.8738 33.1769V42.1817C44.8738 43.0427 44.1694 43.747 43.3085 43.747Z" fill="#E9EFFF"/>
<path d="M43.3085 58.3001H21.8471C20.9861 58.3001 20.2817 57.5958 20.2817 56.7348V47.73C20.2817 46.869 20.9861 46.1647 21.8471 46.1647H43.3085C44.1694 46.1647 44.8738 46.869 44.8738 47.73V56.7348C44.8738 57.5958 44.1694 58.3001 43.3085 58.3001Z" fill="#E9EFFF"/>
<path d="M43.3085 29.1939H21.8471C20.9861 29.1939 20.2817 28.4896 20.2817 27.6286V18.6238C20.2817 17.7628 20.9861 17.0585 21.8471 17.0585H43.3085C44.1694 17.0585 44.8738 17.7628 44.8738 18.6238V27.6286C44.8738 28.4896 44.1694 29.1939 43.3085 29.1939Z" fill="#E9EFFF"/>
<path d="M43.3085 43.747H21.8471C20.9861 43.747 20.2817 43.0427 20.2817 42.1817V33.1769C20.2817 32.3159 20.9861 31.6116 21.8471 31.6116H43.3085C44.1694 31.6116 44.8738 32.3159 44.8738 33.1769V42.1817C44.8738 43.0427 44.1694 43.747 43.3085 43.747Z" fill="#E9EFFF"/>
<path d="M43.3085 58.3001H21.8471C20.9861 58.3001 20.2817 57.5958 20.2817 56.7348V47.73C20.2817 46.869 20.9861 46.1647 21.8471 46.1647H43.3085C44.1694 46.1647 44.8738 46.869 44.8738 47.73V56.7348C44.8738 57.5958 44.1694 58.3001 43.3085 58.3001Z" fill="#E9EFFF"/>
<path d="M27.738 27.6286V18.6239C27.738 17.763 28.4424 17.0586 29.3033 17.0586H21.8471C20.9861 17.0586 20.2817 17.763 20.2817 18.6239V27.6286C20.2817 28.4895 20.9861 29.1939 21.8471 29.1939H29.3033C28.4424 29.1939 27.738 28.4895 27.738 27.6286Z" fill="#D3DCFB"/>
<path d="M27.738 42.1817V33.1769C27.738 32.3159 28.4424 31.6116 29.3033 31.6116H21.8471C20.9861 31.6116 20.2817 32.3159 20.2817 33.1769V42.1817C20.2817 43.0427 20.9861 43.747 21.8471 43.747H29.3033C28.4424 43.747 27.738 43.0427 27.738 42.1817Z" fill="#D3DCFB"/>
<path d="M27.738 56.7348V47.73C27.738 46.869 28.4424 46.1647 29.3033 46.1647H21.8471C20.9861 46.1647 20.2817 46.869 20.2817 47.73V56.7348C20.2817 57.5958 20.9861 58.3001 21.8471 58.3001H29.3033C28.4424 58.3001 27.738 57.5958 27.738 56.7348Z" fill="#D3DCFB"/>
<path d="M31.7316 22.0917H25.4552C24.808 22.0917 24.2833 21.5671 24.2833 20.9198C24.2833 20.2725 24.808 19.7479 25.4552 19.7479H31.7316C32.3788 19.7479 32.9035 20.2725 32.9035 20.9198C32.9035 21.567 32.3788 22.0917 31.7316 22.0917Z" fill="#3C58A0"/>
<path d="M39.7004 26.5045H25.4552C24.808 26.5045 24.2833 25.98 24.2833 25.3326C24.2833 24.6853 24.808 24.1608 25.4552 24.1608H39.7004C40.3475 24.1608 40.8722 24.6853 40.8722 25.3326C40.8722 25.98 40.3475 26.5045 39.7004 26.5045Z" fill="#BEC8F7"/>
<path d="M36.6274 22.0917H35.7419C35.0948 22.0917 34.5701 21.5671 34.5701 20.9198C34.5701 20.2725 35.0948 19.7479 35.7419 19.7479H36.6274C37.2746 19.7479 37.7993 20.2725 37.7993 20.9198C37.7993 21.567 37.2748 22.0917 36.6274 22.0917Z" fill="#BEC8F7"/>
<path d="M31.7316 36.6449H25.4552C24.808 36.6449 24.2833 36.1204 24.2833 35.473C24.2833 34.8257 24.808 34.3011 25.4552 34.3011H31.7316C32.3788 34.3011 32.9035 34.8257 32.9035 35.473C32.9035 36.1204 32.3788 36.6449 31.7316 36.6449Z" fill="#3C58A0"/>
<path d="M39.7004 41.0576H25.4552C24.808 41.0576 24.2833 40.5331 24.2833 39.8857C24.2833 39.2384 24.808 38.7139 25.4552 38.7139H39.7004C40.3475 38.7139 40.8722 39.2384 40.8722 39.8857C40.8722 40.5329 40.3475 41.0576 39.7004 41.0576Z" fill="#BEC8F7"/>
<path d="M36.6274 36.6449H35.7419C35.0948 36.6449 34.5701 36.1204 34.5701 35.473C34.5701 34.8257 35.0948 34.3011 35.7419 34.3011H36.6274C37.2746 34.3011 37.7993 34.8257 37.7993 35.473C37.7993 36.1204 37.2748 36.6449 36.6274 36.6449Z" fill="#BEC8F7"/>
<path d="M31.7316 51.198H25.4552C24.808 51.198 24.2833 50.6733 24.2833 50.0261C24.2833 49.3788 24.808 48.8542 25.4552 48.8542H31.7316C32.3788 48.8542 32.9035 49.3788 32.9035 50.0261C32.9035 50.6735 32.3788 51.198 31.7316 51.198Z" fill="#3C58A0"/>
<path d="M39.7004 55.6108H25.4552C24.808 55.6108 24.2833 55.0863 24.2833 54.439C24.2833 53.7916 24.808 53.2671 25.4552 53.2671H39.7004C40.3475 53.2671 40.8722 53.7916 40.8722 54.439C40.8722 55.0863 40.3475 55.6108 39.7004 55.6108Z" fill="#BEC8F7"/>
<path d="M36.6274 51.198H35.7419C35.0948 51.198 34.5701 50.6733 34.5701 50.0261C34.5701 49.3788 35.0948 48.8542 35.7419 48.8542H36.6274C37.2746 48.8542 37.7993 49.3788 37.7993 50.0261C37.7993 50.6735 37.2748 51.198 36.6274 51.198Z" fill="#BEC8F7"/>
<path d="M19.9483 35.2878C18.7404 36.5914 16.7044 36.6691 15.4008 35.4611L10.0107 30.4668C8.70709 29.2589 8.62943 27.2228 9.8374 25.9193C11.0454 24.6157 13.0813 24.538 14.3849 25.746L19.7751 30.7403C21.0787 31.9483 21.1563 33.9843 19.9483 35.2878Z" fill="#F9BA8F"/>
<path d="M17.6183 33.191L12.2282 28.1966C11.3266 27.3613 11.0124 26.13 11.3032 25.0188C10.7597 25.1757 10.2499 25.4743 9.8374 25.9194C8.62943 27.223 8.70709 29.2591 10.0107 30.4669L15.4008 35.4613C16.7044 36.6691 18.7404 36.5916 19.9483 35.288C20.3208 34.886 20.5702 34.414 20.6999 33.9183C19.6519 34.2207 18.4768 33.9865 17.6183 33.191Z" fill="#FCAD6D"/>
<path d="M19.9483 52.8423C18.7404 54.1459 16.7044 54.2235 15.4008 53.0156L10.0107 48.0212C8.70709 46.8134 8.62943 44.7773 9.8374 43.4737C11.0454 42.1701 13.0813 42.0924 14.3849 43.3004L19.7751 48.2948C21.0787 49.5026 21.1563 51.5387 19.9483 52.8423Z" fill="#F9BA8F"/>
<path d="M17.6183 50.7453L12.2282 45.7509C11.3266 44.9156 11.0124 43.6844 11.3032 42.5731C10.7597 42.73 10.2499 43.0286 9.8374 43.4737C8.62943 44.7773 8.70709 46.8134 10.0107 48.0212L15.4008 53.0156C16.7044 54.2234 18.7404 54.1459 19.9483 52.8423C20.3208 52.4403 20.5702 51.9683 20.6999 51.4727C19.6519 51.7752 18.4768 51.5408 17.6183 50.7453Z" fill="#FCAD6D"/>
<path d="M19.9483 44.0652C18.7404 45.3688 16.7044 45.4464 15.4008 44.2385L10.0107 39.2441C8.70709 38.0363 8.62943 36.0002 9.8374 34.6966C11.0454 33.393 13.0813 33.3153 14.3849 34.5233L19.7751 39.5177C21.0787 40.7255 21.1563 42.7614 19.9483 44.0652Z" fill="#F9BA8F"/>
<path d="M17.6183 41.9681L12.2282 36.9737C11.3266 36.1384 11.0124 34.9071 11.3032 33.7959C10.7597 33.9528 10.2497 34.2514 9.8374 34.6965C8.62943 36.0001 8.70709 38.0361 10.0107 39.244L15.4008 44.2384C16.7044 45.4464 18.7404 45.3687 19.9483 44.0651C20.3208 43.6631 20.5702 43.1911 20.6999 42.6954C19.6519 42.9979 18.4768 42.7636 17.6183 41.9681Z" fill="#FCAD6D"/>
<path d="M65.9481 13.576C63.8701 16.2192 61.9948 20.0167 63.494 24.1607C66.3065 31.9346 70.7858 38.5342 68.7023 50.0261C67.757 55.2404 70.859 57.4262 74.5298 58.2584C76.9328 53.2518 78.2812 47.6431 78.2812 41.7185C78.2814 30.5892 73.5304 20.5709 65.9481 13.576Z" fill="#3CDEB9"/>
</g>
<defs>
<clipPath id="clip0_725_2852">
<rect width="80" height="80" fill="white"/>
</clipPath>
</defs>
</svg>
