<svg xmlns="http://www.w3.org/2000/svg" xmlns:xlink="http://www.w3.org/1999/xlink" xml:space="preserve" id="Layer_1" x="0" y="0" style="enable-background:new 0 0 590 210" viewBox="0 0 590 210"><style>.st0{fill:#000003}</style><path d="M580.3 194.7c-.7 0-1.3-.2-1.8-.7-.5-.5-.7-1.1-.7-1.8s.2-1.3.7-1.8c.5-.5 1.1-.7 1.8-.7s1.2.2 1.7.7c.5.5.7 1.1.7 1.8s-.2 1.3-.7 1.8c-.5.5-1.1.7-1.7.7m-20.5-12.9c0-1.4-.3-2.6-.9-3.6-.6-1-1.5-1.8-2.5-2.3-1.1-.5-2.2-.8-3.5-.8-1.9 0-3.4.6-4.7 1.8-1.3 1.2-2 2.8-2.2 4.9h13.8zm3.8.8c0 .7 0 1.4-.1 2.2h-17.6c.1 2.2.9 3.9 2.2 5.1 1.4 1.2 3 1.8 4.9 1.8 1.6 0 2.9-.4 4-1.1 1.1-.7 1.8-1.7 2.2-3h3.9c-.6 2.1-1.8 3.9-3.5 5.2-1.8 1.3-4 2-6.6 2-2.1 0-4-.5-5.6-1.4-1.7-.9-2.9-2.3-3.9-4-.9-1.7-1.4-3.7-1.4-6s.5-4.3 1.4-6c.9-1.7 2.2-3 3.8-4 1.7-.9 3.6-1.4 5.7-1.4s3.9.5 5.6 1.4c1.6.9 2.9 2.2 3.7 3.8.8 1.6 1.3 3.4 1.3 5.4zm-44.1 12.3c-1.7 0-3.2-.3-4.6-.9-1.3-.6-2.4-1.4-3.2-2.4-.8-1-1.2-2.2-1.3-3.6h3.8c.1 1.1.6 2 1.6 2.7.9.7 2.1 1 3.6 1 1.4 0 2.5-.3 3.3-.9.8-.6 1.2-1.4 1.2-2.3 0-1-.4-1.7-1.3-2.2-.9-.5-2.2-.9-4-1.4-1.6-.4-3-.9-4-1.3s-1.9-1.1-2.7-2c-.7-.9-1.1-2-1.1-3.4 0-1.1.3-2.2 1-3.1.7-.9 1.6-1.7 2.9-2.2 1.2-.6 2.6-.8 4.2-.8 2.4 0 4.4.6 5.9 1.9 1.5 1.2 2.3 2.9 2.4 5.1h-3.7c-.1-1.2-.5-2.1-1.4-2.8-.8-.7-2-1-3.4-1-1.3 0-2.4.3-3.1.8-.8.6-1.2 1.3-1.2 2.2 0 .7.2 1.3.7 1.8.5.5 1.1.8 1.8 1.1.7.3 1.7.6 3 .9 1.6.4 2.9.9 3.9 1.3s1.8 1 2.6 1.9c.7.8 1.1 1.9 1.1 3.3 0 1.2-.3 2.3-1 3.3s-1.6 1.7-2.8 2.3c-1.2.4-2.6.7-4.2.7zm-24.8-22.5v22.1H491v-22.1h3.7zm-1.7-3.6c-.7 0-1.3-.2-1.8-.7-.5-.5-.7-1.1-.7-1.8s.2-1.3.7-1.8c.5-.5 1.1-.7 1.8-.7s1.2.2 1.7.7c.5.5.7 1.1.7 1.8s-.2 1.3-.7 1.8c-.5.5-1.1.7-1.7.7zm-16.3 3.6-6.9 22.1H466l-5.3-17.5-5.3 17.5h-3.8l-6.9-22.1h3.7l5.1 18.5 5.5-18.5h3.7l5.4 18.6 5-18.6h3.6zm-59.5 9.4c0-1.4-.3-2.6-.9-3.6-.6-1-1.5-1.8-2.5-2.3-1.1-.5-2.2-.8-3.5-.8-1.9 0-3.4.6-4.7 1.8-1.3 1.2-2 2.8-2.2 4.9h13.8zm3.8.8c0 .7 0 1.4-.1 2.2h-17.6c.1 2.2.9 3.9 2.2 5.1 1.4 1.2 3 1.8 4.9 1.8 1.6 0 2.9-.4 4-1.1 1.1-.7 1.8-1.7 2.2-3h3.9c-.6 2.1-1.8 3.9-3.5 5.2-1.8 1.3-4 2-6.6 2-2.1 0-4-.5-5.6-1.4-1.7-.9-2.9-2.3-3.9-4-.9-1.7-1.4-3.7-1.4-6s.5-4.3 1.4-6c.9-1.7 2.2-3 3.8-4 1.7-.9 3.6-1.4 5.7-1.4s3.9.5 5.6 1.4c1.6.9 2.9 2.2 3.7 3.8.9 1.6 1.3 3.4 1.3 5.4zm-39.4.8c0-1.7-.3-3.1-1-4.4-.7-1.2-1.6-2.2-2.7-2.8-1.1-.6-2.4-1-3.8-1-1.3 0-2.6.3-3.7 1s-2.1 1.6-2.7 2.9c-.7 1.2-1 2.7-1 4.3 0 1.7.3 3.1 1 4.4.7 1.2 1.6 2.2 2.7 2.9 1.1.7 2.4 1 3.7 1 1.4 0 2.6-.3 3.8-1 1.1-.7 2-1.6 2.7-2.9s1-2.7 1-4.4zm-15-6.9c.8-1.3 1.9-2.4 3.3-3.2 1.5-.8 3.1-1.2 5-1.2 2 0 3.8.5 5.4 1.4 1.6.9 2.8 2.3 3.7 4 .9 1.7 1.4 3.7 1.4 5.9s-.5 4.2-1.4 6c-.9 1.7-2.2 3.1-3.8 4.1-1.6 1-3.4 1.5-5.3 1.5s-3.6-.4-5-1.2c-1.4-.8-2.5-1.9-3.2-3.2v4.1H363v-29.8h3.7v11.6zm-32.4 18.2c-.7 0-1.3-.2-1.8-.7-.5-.5-.7-1.1-.7-1.8s.2-1.3.7-1.8c.5-.5 1.1-.7 1.8-.7s1.2.2 1.7.7c.5.5.7 1.1.7 1.8s-.2 1.3-.7 1.8c-.5.5-1 .7-1.7.7zm-20.5-12.9c0-1.4-.3-2.6-.9-3.6-.6-1-1.5-1.8-2.5-2.3-1.1-.5-2.2-.8-3.5-.8-1.9 0-3.4.6-4.7 1.8-1.3 1.2-2 2.8-2.2 4.9h13.8zm3.8.8c0 .7 0 1.4-.1 2.2h-17.6c.1 2.2.9 3.9 2.2 5.1 1.4 1.2 3 1.8 4.9 1.8 1.6 0 2.9-.4 4-1.1 1.1-.7 1.8-1.7 2.2-3h3.9c-.6 2.1-1.8 3.9-3.5 5.2-1.8 1.3-4 2-6.6 2-2.1 0-4-.5-5.6-1.4-1.7-.9-2.9-2.3-3.9-4-.9-1.7-1.4-3.7-1.4-6s.5-4.3 1.4-6c.9-1.7 2.2-3 3.8-4 1.7-.9 3.6-1.4 5.7-1.4s3.9.5 5.6 1.4c1.6.9 2.9 2.2 3.7 3.8.8 1.6 1.3 3.4 1.3 5.4zm-44.1 12.3c-1.7 0-3.2-.3-4.6-.9s-2.4-1.4-3.2-2.4c-.8-1-1.2-2.2-1.3-3.6h3.8c.1 1.1.6 2 1.6 2.7.9.7 2.1 1 3.6 1 1.4 0 2.5-.3 3.3-.9.8-.6 1.2-1.4 1.2-2.3 0-1-.4-1.7-1.3-2.2-.9-.5-2.2-.9-4-1.4-1.6-.4-3-.9-4-1.3s-1.9-1.1-2.7-2c-.7-.9-1.1-2-1.1-3.4 0-1.1.3-2.2 1-3.1.7-.9 1.6-1.7 2.9-2.2 1.2-.6 2.6-.8 4.2-.8 2.4 0 4.4.6 5.9 1.9 1.5 1.2 2.3 2.9 2.4 5.1h-3.7c-.1-1.2-.5-2.1-1.4-2.8-.8-.7-2-1-3.4-1-1.3 0-2.4.3-3.1.8-.8.6-1.2 1.3-1.2 2.2 0 .7.2 1.3.7 1.8.5.5 1.1.8 1.8 1.1.7.3 1.7.6 3 .9 1.6.4 2.9.9 3.9 1.3s1.8 1 2.6 1.9c.7.8 1.1 1.9 1.1 3.3 0 1.2-.3 2.3-1 3.3s-1.6 1.7-2.8 2.3c-1.2.4-2.6.7-4.2.7zm-24.8-22.5v22.1H245v-22.1h3.6zm-1.7-3.6c-.7 0-1.3-.2-1.8-.7-.5-.5-.7-1.1-.7-1.8s.2-1.3.7-1.8c.5-.5 1.1-.7 1.8-.7s1.2.2 1.7.7c.5.5.7 1.1.7 1.8s-.2 1.3-.7 1.8c-.5.5-1.1.7-1.7.7zm-16.3 3.6-6.9 22.1H220l-5.3-17.5-5.3 17.5h-3.8l-6.9-22.1h3.7l5.1 18.5 5.5-18.5h3.7L222 191l5-18.6h3.6zm-43.7 0-13.3 32.5h-3.8l4.4-10.6-8.9-21.9h4.1l6.9 17.9 6.8-17.9h3.8zm-38.4 9.4c0-1.4-.3-2.6-.9-3.6-.6-1-1.5-1.8-2.5-2.3-1.1-.5-2.2-.8-3.5-.8-1.9 0-3.4.6-4.7 1.8-1.3 1.2-2 2.8-2.2 4.9h13.8zm3.8.8c0 .7 0 1.4-.1 2.2h-17.6c.1 2.2.9 3.9 2.2 5.1 1.4 1.2 3 1.8 4.9 1.8 1.6 0 2.9-.4 4-1.1 1.1-.7 1.8-1.7 2.2-3h3.9c-.6 2.1-1.8 3.9-3.5 5.2-1.8 1.3-4 2-6.6 2-2.1 0-4-.5-5.6-1.4-1.7-.9-2.9-2.3-3.9-4-.9-1.7-1.4-3.7-1.4-6s.5-4.3 1.4-6c.9-1.7 2.2-3 3.8-4 1.7-.9 3.6-1.4 5.7-1.4s3.9.5 5.6 1.4c1.6.9 2.9 2.2 3.7 3.8.9 1.6 1.3 3.4 1.3 5.4zM106.4 172c2.7 0 4.9.8 6.5 2.4 1.7 1.6 2.5 4 2.5 7v13h-3.6V182c0-2.2-.6-3.9-1.7-5.1-1.1-1.2-2.6-1.8-4.5-1.8s-3.5.6-4.6 1.8c-1.1 1.2-1.7 3-1.7 5.3v12.2h-3.7v-22.1h3.7v3.1c.7-1.1 1.7-2 3-2.6 1.3-.5 2.6-.8 4.1-.8zm-37.6 19.6c1.3 0 2.6-.3 3.7-.9 1.2-.6 2.1-1.5 2.8-2.8.7-1.2 1.1-2.7 1.1-4.5 0-1.8-.3-3.3-1-4.5-.7-1.2-1.6-2.2-2.7-2.8-1.1-.6-2.3-.9-3.7-.9-1.3 0-2.6.3-3.7.9-1.1.6-2 1.5-2.7 2.8-.7 1.2-1 2.7-1 4.5 0 1.8.3 3.3 1 4.6.7 1.2 1.5 2.2 2.6 2.8 1.1.5 2.3.8 3.6.8zm0 3.3c-2.1 0-3.9-.5-5.6-1.4-1.7-.9-3-2.3-3.9-4-1-1.7-1.4-3.7-1.4-6s.5-4.3 1.5-6c1-1.7 2.3-3.1 4-4 1.7-.9 3.6-1.4 5.7-1.4s4 .5 5.7 1.4c1.7.9 3 2.3 4 4 1 1.7 1.5 3.7 1.5 6s-.5 4.3-1.5 6c-1 1.7-2.4 3.1-4.1 4-1.9.9-3.8 1.4-5.9 1.4zM33.5 172c1.7 0 3.2.4 4.6 1.1 1.3.7 2.4 1.8 3.2 3.2.8 1.4 1.2 3.2 1.2 5.2v13h-3.6V182c0-2.2-.5-3.9-1.6-5.1-1.1-1.2-2.6-1.8-4.4-1.8-1.9 0-3.4.6-4.6 1.8-1.1 1.2-1.7 3-1.7 5.3v12.2H23V182c0-2.2-.5-3.9-1.6-5.1-1.1-1.2-2.6-1.8-4.4-1.8-1.9 0-3.4.6-4.6 1.8-1.1 1.2-1.7 3-1.7 5.3v12.2H7v-22.1h3.7v3.2c.7-1.2 1.7-2 2.9-2.7 1.2-.6 2.6-.9 4-.9 1.9 0 3.5.4 4.9 1.2 1.4.8 2.5 2.1 3.2 3.7.6-1.6 1.6-2.8 3.1-3.6 1.4-.8 3-1.2 4.7-1.2zM544.6 92.4l38.4 4.4c-2.1 8-5.6 15-10.4 20.8-4.9 5.9-11 10.4-18.5 13.7-7.5 3.2-17.1 4.9-28.7 4.9-11.2 0-20.5-1-28-3.1s-13.9-5.5-19.2-10.1c-5.4-4.7-9.6-10.2-12.6-16.5-3.1-6.3-4.6-14.6-4.6-25.1 0-10.9 1.8-19.9 5.6-27.2 2.7-5.3 6.4-10 11.1-14.3 4.7-4.2 9.5-7.4 14.5-9.4 7.9-3.3 18-4.9 30.3-4.9 17.2 0 30.4 3.1 39.4 9.3 9 6.1 15.4 15.2 19 27.1l-38.1 5.1c-1.2-4.5-3.4-7.9-6.5-10.2-3.2-2.3-7.4-3.4-12.7-3.4-6.7 0-12.1 2.4-16.3 7.2-4.1 4.8-6.2 12.1-6.2 21.8 0 8.7 2.1 15.3 6.2 19.8s9.3 6.8 15.7 6.8c5.3 0 9.7-1.4 13.4-4.1 3.7-2.7 6.4-6.9 8.2-12.6" class="st0"></path><path d="M283 28.1h37.8v15.4c5.5-6.4 10.9-11 16.4-13.8 5.5-2.7 12.2-4.1 20-4.1 8.4 0 15.1 1.5 19.9 4.5 4.9 3 8.9 7.4 12 13.3 6.3-6.9 12.1-11.6 17.4-14.1 5.2-2.5 11.7-3.7 19.4-3.7 11.3 0 20.2 3.4 26.5 10.1 6.4 6.7 9.5 17.3 9.5 31.6v66.3h-40.5v-60c0-4.8-.9-8.4-2.8-10.7-2.7-3.6-6.1-5.5-10.1-5.5-4.8 0-8.6 1.7-11.5 5.2-2.9 3.5-4.3 9-4.3 16.6v54.5h-40.6V75.5c0-4.6-.3-7.8-.8-9.4-.9-2.6-2.4-4.8-4.5-6.4-2.1-1.6-4.6-2.4-7.5-2.4-4.6 0-8.4 1.8-11.4 5.3s-4.5 9.3-4.5 17.3v53.9H283V28.1z" class="st0"></path><path d="m171.6 104.5 40.2-3.8c1.7 4.8 4 8.2 7 10.3 3 2.1 7 3.1 11.9 3.1 5.4 0 9.6-1.1 12.6-3.5 2.3-1.7 3.5-3.9 3.5-6.5 0-2.9-1.5-5.2-4.5-6.8-2.2-1.1-8-2.5-17.4-4.2-14-2.5-23.8-4.7-29.3-6.8-5.5-2.1-10.1-5.6-13.8-10.6-3.8-4.9-5.6-10.6-5.6-17 0-7 2-13 6.1-18 4-5.1 9.6-8.8 16.7-11.3s16.6-3.7 28.5-3.7c12.6 0 21.9 1 27.9 2.9s11 4.9 15 9c4 4 7.3 9.5 10 16.4L242 57.8c-1-3.4-2.6-5.9-5-7.5-3.2-2.1-7-3.2-11.5-3.2s-7.9.8-10 2.4c-2.1 1.6-3.1 3.6-3.1 5.9 0 2.6 1.3 4.6 4 5.9 2.6 1.3 8.4 2.5 17.3 3.6 13.4 1.5 23.4 3.6 30 6.3 6.6 2.7 11.6 6.6 15.1 11.7 3.5 5 5.2 10.6 5.2 16.6 0 6.1-1.8 12.1-5.5 17.8-3.7 5.8-9.5 10.4-17.4 13.8-7.9 3.4-18.7 5.1-32.4 5.1-19.3 0-33-2.7-41.2-8.2-8.4-5.5-13.6-13.4-15.9-23.5" class="st0"></path><defs><path id="SVGID_1_" d="M120.3 71.3c-3.9 15.9-10.7 32.1-22.2 47-20.1-7.7-40.3-20.2-56.3-40.5 7.7-13.5 17.9-26.5 31.7-37.5C86.8 45.4 100 53 112.2 63.9c2.9 2.5 5.6 5 8.1 7.4m-.8-56.8c1.4.8 2.9 1.6 4.2 2.5 1.1 11.4 1.3 24.3-.4 37.8-6.1-3.2-13.1-6.4-21-9.6-8.3-3.4-16.5-6.1-24.4-8.2 3.7-2.7 7.6-5.2 11.8-7.6 11.8-6.7 21.6-11.5 29.8-14.9zM26.2 29.7C40 14.6 60.1 5.1 82.5 5.1c4.5 0 9 .4 13.3 1.1-8.1 6.4-17.1 15-27.1 26.6-.4.5-.9 1-1.3 1.5-14.7-3.1-28.6-4.4-41.2-4.6zm-8.1 10.7c2.1-3.3 4.4-6.4 6.9-9.3 12.7.4 26.3 2.2 39.9 6.3-10.4 12.8-18.5 25.8-24.8 38.3-1-1.3-1.9-2.6-2.8-3.9-8.8-12.6-14.9-23-19.2-31.4zm5 84C13 111.9 7 96.1 7 78.9c0-5.6.6-11.1 1.9-16.3 6.2 7.3 14.7 15.4 26.2 24.1-5.9 13.6-9.6 26.5-12 37.7zM66.5 151c-17.1-3.6-32-12.8-42.6-25.6 2.6-11.6 6.5-24.6 12.7-37.6 2 1.5 4 3 6.2 4.5 18.5 13.1 37 21.8 54.1 27.6-1.7 2.1-3.5 4.2-5.3 6.3C81.8 137 73.5 145 66.5 151zm71.3-21.8c-11.8 12.4-28 20.8-46.1 22.9 5.1-7.5 10.4-17 15.7-28.9 10.9 3 21.2 4.9 30.4 6zm13.6-20c-3.3 7-7.6 13.5-12.8 19.1-9.5-1.2-19.9-3.3-30.6-6.6.8-1.8 1.5-3.6 2.3-5.4 6.1-14.9 10-29.2 12.4-42.7 17.1 16.6 25 28.2 28.7 35.6zm6.7-30.3c0 1 0 2-.1 3.1-5.8-8-15.9-17-33-26.2 1.2-14.1.9-26.9-.3-38.1 20.2 13.2 33.4 35.7 33.4 61.2z"></path></defs><clipPath id="SVGID_00000030456221594046090420000017677948155830859944_"><use xlink:href="#SVGID_1_" style="overflow:visible"></use></clipPath><linearGradient id="SVGID_00000054952812983550392380000015798669116109369256_" x1="7" x2="158.083" y1="78.615" y2="78.615" gradientUnits="userSpaceOnUse"><stop offset="0" style="stop-color:#373f99"></stop><stop offset="1" style="stop-color:#52bf9d"></stop></linearGradient><path d="M7 5.1h151.1v147H7z" style="clip-path:url(#SVGID_00000030456221594046090420000017677948155830859944_);fill:url(#SVGID_00000054952812983550392380000015798669116109369256_)"></path></svg>