<svg width="60" height="58" viewBox="0 0 60 58" fill="none" xmlns="http://www.w3.org/2000/svg">
<path d="M28.4398 56.8796C44.1467 56.8796 56.8796 44.1467 56.8796 28.4398C56.8796 12.7329 44.1467 0 28.4398 0C12.7329 0 0 12.7329 0 28.4398C0 44.1467 12.7329 56.8796 28.4398 56.8796Z" fill="#16AF8C"/>
<g style="mix-blend-mode:soft-light">
<path d="M31.5599 57.6599C47.2668 57.6599 59.9997 44.927 59.9997 29.2201C59.9997 13.5132 47.2668 0.780273 31.5599 0.780273C15.8531 0.780273 3.12012 13.5132 3.12012 29.2201C3.12012 44.927 15.8531 57.6599 31.5599 57.6599Z" fill="#1EC69F"/>
</g>
<path d="M53.5883 18.8541C53.5086 18.8953 53.4189 18.9169 53.3286 18.9169C53.2383 18.9169 53.1485 18.8951 53.0688 18.8541C46.2838 15.3502 42.1626 9.87348 41.23 3.23459C37.4708 1.39909 33.247 0.367676 28.782 0.367676C13.0926 0.367676 0.374023 13.0864 0.374023 28.7756C0.374023 44.4648 13.0927 57.1835 28.782 57.1835C44.4712 57.1835 57.1899 44.4648 57.1899 28.7756C57.1899 24.9702 56.4397 21.3405 55.0823 18.0237C54.5995 18.3114 54.1021 18.5888 53.5883 18.8541Z" fill="#1EC69F"/>
<path d="M5.4721 36.6189C5.8701 36.2209 6.51531 36.2209 6.91331 36.6189L7.32736 37.033C6.53466 34.4197 6.10662 31.6479 6.10662 28.7756C6.10662 14.0539 17.3051 1.948 31.6483 0.510905C30.7057 0.416516 29.7496 0.367676 28.7819 0.367676C13.0926 0.367676 0.374023 13.0864 0.374023 28.7756C0.374023 32.6033 1.13284 36.2532 2.50531 39.5857L5.4721 36.6189Z" fill="#14B892"/>
<path d="M43.5299 32.7989C44.1975 33.6092 44.0965 34.8041 43.3024 35.4909L37.9182 39.9651C35.8962 41.6613 33.3131 42.5404 30.6762 42.4297L22.8654 42.0505C21.9903 42.0065 21.1132 42.0574 20.2491 42.2022L16.9883 42.8089H16.7607V33.178H16.9124L20.287 31.5476C21.994 30.6615 23.9006 30.2306 25.8229 30.2963L30.9795 30.5239H31.0932C32.0575 30.5169 32.8734 31.2349 32.989 32.1922C33.1066 33.1978 32.4286 34.1239 31.4345 34.3155L27.6049 35.036C26.988 35.1546 26.584 35.7508 26.7025 36.3677C26.728 36.5001 26.7768 36.6269 26.8466 36.7422L27.2637 37.4627C27.4578 37.8196 27.8447 38.0279 28.2495 37.9935L31.9654 37.8797C33.3617 37.8472 34.7081 37.354 35.7949 36.4768L40.762 32.4576C41.6106 31.7786 42.8485 31.9142 43.5299 32.761V32.7989Z" fill="#3E4695"/>
<path d="M33.5195 11.1488C38.3777 11.1278 42.3331 15.0492 42.354 19.9075C42.3749 24.7657 38.4535 28.721 33.5953 28.742C28.7371 28.763 24.7818 24.8414 24.7609 19.9833C24.7608 19.9707 24.7608 19.958 24.7608 19.9455C24.7399 15.1082 28.6443 11.1698 33.4816 11.1488C33.4942 11.1488 33.5069 11.1488 33.5195 11.1488Z" fill="#F3FFFC"/>
<path d="M17.1393 42.8091V44.2121C17.1393 45.0498 16.4603 45.7288 15.6226 45.7288H12.6651C11.8274 45.7288 11.1484 45.0498 11.1484 44.2121V33.1404C11.1484 32.3028 11.8274 31.6238 12.6651 31.6238H15.6226C16.4603 31.6238 17.1393 32.3028 17.1393 33.1404V42.8091Z" fill="#272F7A"/>
<path d="M36.3632 17.8223H35.4153C35.3272 17.4264 35.1869 17.0439 34.9982 16.6849H36.3632C36.7821 16.6849 37.1216 16.3454 37.1216 15.9265C37.1216 15.5077 36.7821 15.1682 36.3632 15.1682H30.6758C30.2569 15.1682 29.9174 15.5077 29.9174 15.9265C29.9174 16.3454 30.2569 16.6849 30.6758 16.6849H32.3062C32.9971 16.6933 33.5996 17.1567 33.7849 17.8223H30.6758C30.2569 17.8223 29.9174 18.1618 29.9174 18.5807C29.9174 18.9995 30.2569 19.339 30.6758 19.339H33.7849C33.7091 19.339 33.6333 19.5665 33.4816 19.6803C33.1628 19.9733 32.7384 20.1239 32.3062 20.0973H30.6758C30.3678 20.097 30.0873 20.2741 29.9553 20.5523C29.8406 20.8429 29.9159 21.174 30.1449 21.3865L34.2019 25.216C34.3419 25.3589 34.5327 25.4407 34.7328 25.4436C34.9487 25.4288 35.1514 25.3341 35.3015 25.1782C35.5803 24.8731 35.5635 24.401 35.2636 24.1165L32.5716 21.5761C33.3068 21.5402 34.0055 21.2446 34.5432 20.7419C34.9325 20.3432 35.2301 19.8645 35.4153 19.3389H36.3632C36.782 19.3389 37.1215 18.9994 37.1215 18.5806C37.1216 18.1618 36.7821 17.8223 36.3632 17.8223Z" fill="#3E4695"/>
</svg>
