<svg width="80" height="80" viewBox="0 0 80 80" fill="none" xmlns="http://www.w3.org/2000/svg">
<g clip-path="url(#clip0_1902_558)">
<path d="M63.8152 33.3683C63.7245 33.4152 63.6223 33.4399 63.5195 33.4399C63.4166 33.4399 63.3143 33.4151 63.2235 33.3683C55.496 29.3777 50.8024 23.1402 49.7402 15.5791C45.4588 13.4887 40.6484 12.314 35.563 12.314C17.6943 12.314 3.20898 26.7994 3.20898 44.668C3.20898 62.5366 17.6945 77.0221 35.563 77.0221C53.4316 77.0221 67.9171 62.5366 67.9171 44.668C67.9171 40.334 67.0627 36.2001 65.5168 32.4226C64.967 32.7502 64.4004 33.0662 63.8152 33.3683Z" fill="#1EC69F"/>
<path d="M9.01572 53.6008C9.469 53.1476 10.2038 53.1476 10.6571 53.6008L11.1287 54.0724C10.2259 51.0962 9.73838 47.9393 9.73838 44.668C9.73838 27.9013 22.4924 14.1138 38.8281 12.4771C37.7545 12.3696 36.6656 12.314 35.5635 12.314C17.6948 12.314 3.20947 26.7994 3.20947 44.668C3.20947 49.0274 4.07369 53.1843 5.63682 56.9798L9.01572 53.6008Z" fill="#14B892"/>
<path d="M50.1853 56.2979C48.3943 58.0887 46.0131 59.0751 43.4807 59.0751C43.364 59.0751 43.247 59.0729 43.13 59.0685L40.8325 58.9837C40.7114 58.9793 40.5907 58.9771 40.4701 58.9771C38.6918 58.9771 36.9864 59.449 35.4951 60.3317L44.7276 69.5641L59.2467 55.0451L55.3425 51.1409L50.1853 56.2979Z" fill="#FFE5C2"/>
<path d="M43.1243 59.2248L40.8266 59.1398C38.9826 59.0716 37.1763 59.5344 35.6113 60.4479L44.617 69.4535L49.6287 64.4418L44.3735 59.1866C43.9605 59.2252 43.5437 59.2404 43.1243 59.2248Z" fill="#FED2A4"/>
<path d="M48.7773 79.6601L42.4147 73.2974C41.9614 72.8441 41.9614 72.1093 42.4147 71.656L60.47 53.6007C60.9233 53.1474 61.6581 53.1474 62.1114 53.6007L68.474 59.9634C68.9273 60.4166 68.9273 61.1515 68.474 61.6048L50.4187 79.6601C49.9655 80.1134 49.2306 80.1134 48.7773 79.6601Z" fill="#272F7A"/>
<path d="M49.174 73.2976C48.7208 72.8443 48.7208 72.1094 49.174 71.6562L64.6705 56.1598L62.1115 53.6007C61.6583 53.1474 60.9234 53.1474 60.4701 53.6007L42.4147 71.6562C41.9614 72.1094 41.9614 72.8443 42.4147 73.2976L48.7773 79.6602C49.2306 80.1135 49.9655 80.1135 50.4187 79.6602L52.9776 77.1012L49.174 73.2976Z" fill="#3E4695"/>
<path d="M61.2958 40.6599C60.1881 39.4757 58.4641 39.2441 57.1153 39.9655C56.9803 40.0377 56.8305 39.8933 56.9028 39.7585C57.6087 38.4424 57.4064 36.7677 56.2959 35.6574C55.1858 34.5472 53.5116 34.3447 52.1956 35.0501C52.0625 35.1215 51.9148 34.9738 51.9862 34.8407C52.6916 33.5247 52.4891 31.8507 51.3789 30.7404C50.2684 29.6299 48.5938 29.4277 47.2777 30.1335C47.1428 30.2058 46.9984 30.056 47.0706 29.921C47.7931 28.5702 47.5598 26.8427 46.3706 25.7352C44.9911 24.4504 42.8192 24.5491 41.4861 25.8822L41.1813 26.1871L40.9189 26.2285L36.6983 30.449L36.727 30.6411L39.2816 33.1957C39.9452 33.8593 40.3416 34.7599 40.3162 35.698C40.2917 36.6057 39.9086 37.4435 39.2364 38.0591C38.6423 38.6029 37.862 38.9022 37.0391 38.9022C37.0389 38.9022 37.0389 38.9022 37.0387 38.9022C36.1222 38.9022 35.2231 38.5288 34.5722 37.878L34.3513 38.099L35.2837 39.0315C35.9052 39.6529 36.2923 40.4836 36.3108 41.3622C36.3337 42.4605 35.8306 43.4791 34.9214 44.1387C34.4953 44.4477 33.995 44.6486 33.4737 44.7216C32.4105 44.8704 31.383 44.5227 30.6431 43.7829L29.038 42.1777L28.817 42.3987C29.5994 43.181 29.9422 44.2815 29.7259 45.4082C29.6509 45.799 29.5019 46.1749 29.2869 46.5097C28.5933 47.5902 27.4105 48.163 26.1689 48.0538C25.3731 47.9838 24.6347 47.6085 24.0698 47.0435L22.1973 45.171L21.9758 45.3926C22.6637 46.0883 23.0075 47.0313 22.9227 48.0207C22.8698 48.6365 22.6441 49.231 22.2697 49.7227C21.6244 50.5704 20.653 51.0468 19.615 51.0468C18.7345 51.0468 17.9066 50.7055 17.2811 50.0871L12.1016 55.2666L26.2228 69.3879L33.6545 61.9562C35.5495 60.0612 38.148 59.0407 40.8263 59.1396L43.1239 59.2246C45.802 59.3237 48.4005 58.3032 50.2955 56.4082L61.1481 45.5555C62.4847 44.2194 62.5866 42.0399 61.2958 40.6599Z" fill="#D88A55"/>
<path d="M39.4559 33.1486C40.0474 33.7402 40.3784 34.4919 40.4545 35.2641L47.4785 28.24C47.468 27.3642 47.1304 26.4916 46.4621 25.8233C45.1043 24.4655 42.9029 24.4655 41.5452 25.8233L36.8379 30.5306L39.4559 33.1486Z" fill="#C57A44"/>
<path d="M23.1212 52.5976L27.7326 47.9863C26.4851 48.4721 25.0157 48.2102 24.0107 47.2051L22.0872 45.2816L22.0865 45.2824C23.4455 46.6563 23.4243 48.8766 22.0347 50.2233C20.6758 51.5404 18.5147 51.5271 17.171 50.198L12.2124 55.1563L26.3337 69.2776L30.7912 64.8202L23.1212 57.1504C21.864 55.8932 21.864 53.8547 23.1212 52.5976Z" fill="#C57A44"/>
<path d="M39.456 33.1486L31.3985 25.0911C30.0406 23.7333 27.8392 23.7333 26.4816 25.0911C25.1238 26.4489 25.1238 28.6503 26.4816 30.008C25.1238 28.6502 22.9225 28.6502 21.5647 30.008C20.2069 31.3658 20.2069 33.5672 21.5647 34.9249C20.2069 33.5671 18.0055 33.5671 16.6477 34.9249C15.2899 36.2827 15.2899 38.4841 16.6477 39.8417L18.1525 41.3466C16.7947 39.9888 14.5935 39.9888 13.2356 41.3466C11.8778 42.7044 11.8778 44.9058 13.2356 46.2635L17.1569 50.1847C18.4997 51.5275 20.6713 51.5446 22.035 50.223C23.4292 48.8719 23.4467 46.6406 22.0739 45.2678L24.011 47.2049C25.3538 48.5477 27.5253 48.5647 28.8891 47.2431C30.2833 45.892 30.3008 43.6608 28.928 42.288L30.5333 43.8931C31.8761 45.236 34.0477 45.253 35.4114 43.9314C36.8056 42.5803 36.8231 40.3491 35.4503 38.9763L34.4625 37.9885C35.7906 39.3164 37.9575 39.4425 39.3428 38.1742C40.8127 36.8281 40.8506 34.5433 39.456 33.1486Z" fill="#FFE5C2"/>
<path d="M37.8195 23.5925H31.6113C30.5607 23.5925 29.709 24.4442 29.709 25.4949V26.2846C29.709 28.6382 31.617 30.5461 33.9705 30.5461L36.838 30.5308L41.1816 26.1871C40.7915 24.6964 39.4366 23.5925 37.8195 23.5925Z" fill="#FFBD86"/>
<path d="M37.47 36.5715L29.4896 28.5911C28.2596 27.3611 28.1477 25.4408 29.1463 24.0805C28.1891 24.0239 27.213 24.3597 26.4817 25.0911C25.1239 26.4489 25.1239 28.6501 26.4817 30.008L34.4622 37.9884C35.7903 39.3165 37.9572 39.4426 39.3425 38.1744C39.5249 38.0073 39.683 37.8248 39.8203 37.632C38.9627 37.5775 38.1169 37.2183 37.47 36.5715Z" fill="#FED2A4"/>
<path d="M33.9037 42.2009L24.9354 33.2326C23.7905 32.0878 23.6151 30.345 24.4007 29.012C23.3896 28.9021 22.3397 29.2329 21.5647 30.0079C20.2069 31.3657 20.2069 33.5671 21.5647 34.9248L30.533 43.8931C31.8758 45.2359 34.0476 45.2529 35.4112 43.9314C35.641 43.7087 35.8296 43.4604 35.9844 43.1978C35.224 43.1151 34.4858 42.7831 33.9037 42.2009Z" fill="#FED2A4"/>
<path d="M27.3042 45.5813L19.941 38.2181C18.7751 37.0522 18.6134 35.2656 19.4498 33.9239C18.4493 33.8252 17.4142 34.1584 16.6478 34.9248C15.2899 36.2827 15.2899 38.4841 16.6478 39.8419L24.0109 47.205C25.3537 48.5478 27.5253 48.5648 28.889 47.2433C29.0976 47.0413 29.2713 46.8177 29.4184 46.582C28.6462 46.5056 27.8949 46.172 27.3042 45.5813Z" fill="#FED2A4"/>
<path d="M20.4728 48.5688L16.5516 44.6475C15.3846 43.4805 15.2236 41.6914 16.0627 40.3494C15.0544 40.2425 14.0085 40.5739 13.2356 41.3467C11.8778 42.7045 11.8778 44.9059 13.2356 46.2636L17.1569 50.1848C18.4997 51.5277 20.6713 51.5445 22.035 50.2231C22.2421 50.0225 22.415 49.8008 22.5613 49.5669C21.7981 49.4856 21.0569 49.153 20.4728 48.5688Z" fill="#FED2A4"/>
<path d="M28.7123 73.2976L22.3497 79.6602C21.8964 80.1135 21.1615 80.1135 20.7083 79.6602L2.65295 61.6048C2.19967 61.1515 2.19967 60.4166 2.65295 59.9634L9.01561 53.6007C9.46889 53.1474 10.2037 53.1474 10.657 53.6007L28.7123 71.6562C29.1656 72.1094 29.1656 72.8443 28.7123 73.2976Z" fill="#3E4695"/>
<path d="M9.27342 61.6048C8.82014 61.1515 8.82014 60.4166 9.27342 59.9634L13.1465 56.0902L10.657 53.6007C10.2037 53.1474 9.46889 53.1474 9.01561 53.6007L2.65295 59.9634C2.19967 60.4166 2.19967 61.1515 2.65295 61.6048L20.7083 79.6601C21.1615 80.1134 21.8964 80.1134 22.3497 79.6601L24.8392 77.1705L9.27342 61.6048Z" fill="#272F7A"/>
<path d="M63.5199 0C59.3187 0 55.3552 4.19438 51.8565 3.05344C51.4472 2.92 51.0049 3.14844 50.8593 3.55344C49.8857 6.26094 49.353 9.17859 49.353 12.2214C49.353 22.1095 54.9524 29.2725 63.1526 33.5072C63.3824 33.6259 63.6577 33.6259 63.8876 33.5072C72.0877 29.2725 77.6871 22.1095 77.6871 12.2214C77.6871 9.17859 77.1543 6.26094 76.1808 3.55344C76.0352 3.14844 75.5929 2.92 75.1836 3.05344C71.6846 4.19438 67.721 0 63.5199 0Z" fill="#3E4695"/>
<path d="M61.4197 24.4195C57.1765 23.4603 53.9974 19.6623 53.9974 15.1333C53.9974 12.7833 54.8547 10.6311 56.2708 8.96843C56.358 6.51077 56.7926 4.14202 57.5247 1.90796C55.5351 2.83405 53.6355 3.63358 51.8565 3.05343C51.4472 2.91999 51.0049 3.14843 50.8593 3.55343C49.8857 6.26093 49.353 9.17859 49.353 12.2214C49.353 22.1095 54.9524 29.2725 63.1526 33.5072C63.3824 33.6259 63.6577 33.6259 63.8876 33.5072C65.6188 32.6131 67.2324 31.587 68.7037 30.4337C65.8743 28.8001 63.4013 26.7917 61.4197 24.4195Z" fill="#272F7A"/>
<path d="M63.5201 23.4837C68.132 23.4837 71.8707 19.745 71.8707 15.1331C71.8707 10.5212 68.132 6.78247 63.5201 6.78247C58.9081 6.78247 55.1694 10.5212 55.1694 15.1331C55.1694 19.745 58.9081 23.4837 63.5201 23.4837Z" fill="#1EC69F"/>
<path d="M61.0866 15.1331C61.0866 11.5633 63.3274 8.51825 66.4787 7.32372C65.5588 6.97497 64.5621 6.78247 63.5201 6.78247C58.9082 6.78247 55.1694 10.5212 55.1694 15.1331C55.1694 19.745 58.9082 23.4837 63.5201 23.4837C64.5621 23.4837 65.5588 23.2912 66.4787 22.9425C63.3274 21.7479 61.0866 18.7029 61.0866 15.1331Z" fill="#14B892"/>
<path d="M63.5199 24.6556C58.2693 24.6556 53.9976 20.3839 53.9976 15.1331C53.9976 9.88231 58.2693 5.6106 63.5199 5.6106C68.7705 5.6106 73.0424 9.88231 73.0424 15.1331C73.0424 20.3839 68.7707 24.6556 63.5199 24.6556ZM63.5199 7.9545C59.5616 7.9545 56.3413 11.1748 56.3413 15.1333C56.3413 19.0917 59.5616 22.312 63.5199 22.312C67.4783 22.312 70.6987 19.0917 70.6987 15.1333C70.6987 11.1748 67.4783 7.9545 63.5199 7.9545Z" fill="white"/>
<path d="M62.9555 18.8049C62.6448 18.8049 62.3468 18.6815 62.1268 18.4617L58.6743 15.0092C58.2166 14.5515 58.2166 13.8095 58.6743 13.352C59.1323 12.8943 59.8741 12.8943 60.3316 13.352L62.9554 15.9759L66.7085 12.2228C67.1663 11.7651 67.9082 11.7651 68.3659 12.2228C68.8235 12.6804 68.8235 13.4224 68.3659 13.8799L63.7841 18.4617C63.5645 18.6815 63.2663 18.8049 62.9555 18.8049Z" fill="white"/>
</g>
<defs>
<clipPath id="clip0_1902_558">
<rect width="80" height="80" fill="white"/>
</clipPath>
</defs>
</svg>
