<svg width="80" height="80" viewBox="0 0 80 80" fill="none" xmlns="http://www.w3.org/2000/svg">
<g clip-path="url(#clip0_725_2805)">
<path d="M63.8156 33.3683C63.7248 33.4152 63.6226 33.4399 63.5198 33.4399C63.417 33.4399 63.3147 33.4151 63.2239 33.3683C55.4964 29.3777 50.8028 23.1402 49.7406 15.5791C45.4592 13.4887 40.6487 12.314 35.5634 12.314C17.6947 12.314 3.20935 26.7994 3.20935 44.668C3.20935 62.5366 17.6948 77.0221 35.5634 77.0221C53.432 77.0221 67.9175 62.5366 67.9175 44.668C67.9175 40.334 67.0631 36.2001 65.5172 32.4226C64.9673 32.7502 64.4008 33.0662 63.8156 33.3683Z" fill="#1EC69F"/>
<path d="M9.01572 53.6008C9.469 53.1476 10.2038 53.1476 10.6571 53.6008L11.1287 54.0724C10.2259 51.0962 9.73838 47.9393 9.73838 44.668C9.73838 27.9013 22.4924 14.1138 38.8281 12.4771C37.7545 12.3696 36.6656 12.314 35.5635 12.314C17.6948 12.314 3.20947 26.7994 3.20947 44.668C3.20947 49.0274 4.07369 53.1843 5.63682 56.9798L9.01572 53.6008Z" fill="#14B892"/>
<path d="M50.1855 56.2979C48.3946 58.0887 46.0133 59.0751 43.481 59.0751C43.3643 59.0751 43.2472 59.0729 43.1302 59.0685L40.8327 58.9837C40.7116 58.9793 40.591 58.9771 40.4704 58.9771C38.6921 58.9771 36.9866 59.449 35.4954 60.3317L44.7279 69.5641L59.2469 55.0451L55.3427 51.1409L50.1855 56.2979Z" fill="#FFE5C2"/>
<path d="M43.1245 59.2246L40.8269 59.1396C38.9828 59.0715 37.1766 59.5343 35.6116 60.4478L44.6172 69.4534L49.6289 64.4417L44.3738 59.1865C43.9608 59.2251 43.5439 59.2403 43.1245 59.2246Z" fill="#FED2A4"/>
<path d="M48.7774 79.6601L42.4148 73.2974C41.9615 72.8441 41.9615 72.1093 42.4148 71.656L60.4701 53.6007C60.9234 53.1474 61.6582 53.1474 62.1115 53.6007L68.4742 59.9634C68.9274 60.4166 68.9274 61.1515 68.4742 61.6048L50.4189 79.6601C49.9656 80.1134 49.2307 80.1134 48.7774 79.6601Z" fill="#272F7A"/>
<path d="M49.1742 73.2976C48.7209 72.8443 48.7209 72.1094 49.1742 71.6562L64.6706 56.1598L62.1117 53.6007C61.6584 53.1474 60.9235 53.1474 60.4703 53.6007L42.4148 71.6562C41.9615 72.1094 41.9615 72.8443 42.4148 73.2976L48.7774 79.6602C49.2307 80.1135 49.9656 80.1135 50.4189 79.6602L52.9778 77.1012L49.1742 73.2976Z" fill="#3E4695"/>
<path d="M61.296 40.6599C60.1884 39.4757 58.4643 39.2441 57.1156 39.9655C56.9806 40.0377 56.8307 39.8933 56.9031 39.7585C57.609 38.4424 57.4067 36.7677 56.2962 35.6574C55.186 34.5472 53.5118 34.3447 52.1959 35.0501C52.0627 35.1215 51.9151 34.9738 51.9865 34.8407C52.6918 33.5247 52.4893 31.8507 51.3792 30.7404C50.2687 29.6299 48.594 29.4277 47.2779 30.1335C47.1431 30.2058 46.9987 30.056 47.0709 29.921C47.7934 28.5702 47.5601 26.8427 46.3709 25.7352C44.9913 24.4504 42.8195 24.5491 41.4863 25.8822L41.1815 26.1871L40.9192 26.2285L36.6985 30.449L36.7273 30.6411L39.2818 33.1957C39.9454 33.8593 40.3418 34.7599 40.3165 35.698C40.292 36.6057 39.9088 37.4435 39.2366 38.0591C38.6426 38.6029 37.8623 38.9022 37.0393 38.9022C37.0392 38.9022 37.0391 38.9022 37.039 38.9022C36.1224 38.9022 35.2234 38.5288 34.5724 37.878L34.3515 38.099L35.284 39.0315C35.9054 39.6529 36.2926 40.4836 36.311 41.3622C36.334 42.4605 35.8309 43.4791 34.9216 44.1387C34.4956 44.4477 33.9952 44.6486 33.474 44.7216C32.4107 44.8704 31.3832 44.5227 30.6434 43.7829L29.0382 42.1777L28.8173 42.3987C29.5996 43.181 29.9424 44.2815 29.7262 45.4082C29.6512 45.799 29.5021 46.1749 29.2871 46.5097C28.5935 47.5902 27.4107 48.163 26.1692 48.0538C25.3734 47.9838 24.6349 47.6085 24.0701 47.0435L22.1976 45.171L21.976 45.3926C22.664 46.0883 23.0077 47.0313 22.9229 48.0207C22.8701 48.6365 22.6443 49.231 22.2699 49.7227C21.6246 50.5704 20.6532 51.0468 19.6152 51.0468C18.7348 51.0468 17.9068 50.7055 17.2813 50.0871L12.1018 55.2666L26.2231 69.3879L33.6548 61.9562C35.5498 60.0612 38.1482 59.0407 40.8265 59.1396L43.1241 59.2246C45.8023 59.3237 48.4007 58.3032 50.2957 56.4082L61.1484 45.5555C62.4849 44.2194 62.5868 42.0399 61.296 40.6599Z" fill="#D88A55"/>
<path d="M39.4562 33.1486C40.0478 33.7402 40.3787 34.4919 40.4548 35.2641L47.4789 28.24C47.4684 27.3642 47.1308 26.4916 46.4625 25.8233C45.1047 24.4655 42.9033 24.4655 41.5456 25.8233L36.8383 30.5306L39.4562 33.1486Z" fill="#C57A44"/>
<path d="M23.1214 52.5974L27.7328 47.9862C26.4853 48.472 25.0159 48.2101 24.0109 47.2049L22.0875 45.2815L22.0867 45.2823C23.4458 46.6562 23.4245 48.8765 22.035 50.2232C20.6761 51.5402 18.515 51.527 17.1712 50.1979L12.2126 55.1562L26.3339 69.2774L30.7914 64.8201L23.1214 57.1502C21.8642 55.8931 21.8642 53.8546 23.1214 52.5974Z" fill="#C57A44"/>
<path d="M39.4562 33.1486L31.3987 25.0911C30.0409 23.7333 27.8395 23.7333 26.4818 25.0911C25.124 26.4489 25.124 28.6503 26.4818 30.008C25.124 28.6502 22.9228 28.6502 21.565 30.008C20.2071 31.3658 20.2071 33.5672 21.565 34.9249C20.2071 33.5671 18.0057 33.5671 16.6479 34.9249C15.2901 36.2827 15.2901 38.4841 16.6479 39.8417L18.1528 41.3466C16.795 39.9888 14.5937 39.9888 13.2359 41.3466C11.8781 42.7044 11.8781 44.9058 13.2359 46.2635L17.1571 50.1847C18.5 51.5275 20.6715 51.5446 22.0353 50.223C23.4295 48.8719 23.447 46.6406 22.0742 45.2678L24.0112 47.2049C25.354 48.5477 27.5256 48.5647 28.8893 47.2431C30.2835 45.892 30.301 43.6608 28.9282 42.288L30.5335 43.8931C31.8764 45.236 34.0479 45.253 35.4117 43.9314C36.8059 42.5803 36.8234 40.3491 35.4506 38.9763L34.4628 37.9885C35.7909 39.3164 37.9578 39.4425 39.3431 38.1742C40.8129 36.8281 40.8509 34.5433 39.4562 33.1486Z" fill="#FFE5C2"/>
<path d="M37.8197 23.5925H31.6116C30.5609 23.5925 29.7092 24.4442 29.7092 25.4949V26.2846C29.7092 28.6382 31.6172 30.5461 33.9708 30.5461L36.8383 30.5308L41.1819 26.1871C40.7917 24.6964 39.4369 23.5925 37.8197 23.5925Z" fill="#FFBD86"/>
<path d="M37.4699 36.5715L29.4894 28.5911C28.2594 27.3611 28.1476 25.4408 29.1461 24.0805C28.189 24.0239 27.2129 24.3597 26.4816 25.0911C25.1238 26.4489 25.1238 28.6501 26.4816 30.008L34.4621 37.9884C35.7902 39.3165 37.9571 39.4426 39.3424 38.1744C39.5247 38.0073 39.6829 37.8248 39.8202 37.632C38.9626 37.5775 38.1168 37.2183 37.4699 36.5715Z" fill="#FED2A4"/>
<path d="M33.9037 42.2009L24.9354 33.2326C23.7905 32.0878 23.6151 30.345 24.4007 29.012C23.3896 28.9021 22.3397 29.2329 21.5647 30.0079C20.2069 31.3657 20.2069 33.5671 21.5647 34.9248L30.533 43.8931C31.8758 45.2359 34.0476 45.2529 35.4112 43.9314C35.641 43.7087 35.8296 43.4604 35.9844 43.1978C35.224 43.1151 34.4858 42.7831 33.9037 42.2009Z" fill="#FED2A4"/>
<path d="M27.3039 45.5813L19.9408 38.2181C18.7749 37.0522 18.6131 35.2656 19.4495 33.9239C18.4491 33.8252 17.4139 34.1584 16.6475 34.9248C15.2897 36.2827 15.2897 38.4841 16.6475 39.8419L24.0106 47.205C25.3534 48.5478 27.525 48.5648 28.8888 47.2433C29.0974 47.0413 29.2711 46.8177 29.4181 46.582C28.6459 46.5056 27.8947 46.172 27.3039 45.5813Z" fill="#FED2A4"/>
<path d="M20.4727 48.5688L16.5515 44.6475C15.3844 43.4805 15.2235 41.6914 16.0626 40.3494C15.0543 40.2425 14.0083 40.5739 13.2355 41.3467C11.8777 42.7045 11.8777 44.9059 13.2355 46.2636L17.1568 50.1848C18.4996 51.5277 20.6711 51.5445 22.0349 50.2231C22.2419 50.0225 22.4149 49.8008 22.5611 49.5669C21.798 49.4856 21.0568 49.153 20.4727 48.5688Z" fill="#FED2A4"/>
<path d="M28.7124 73.2976L22.3498 79.6602C21.8965 80.1135 21.1617 80.1135 20.7084 79.6602L2.65307 61.6048C2.19979 61.1515 2.19979 60.4166 2.65307 59.9634L9.01573 53.6007C9.46901 53.1474 10.2039 53.1474 10.6571 53.6007L28.7124 71.6562C29.1657 72.1094 29.1657 72.8443 28.7124 73.2976Z" fill="#3E4695"/>
<path d="M9.27354 61.6048C8.82026 61.1515 8.82026 60.4166 9.27354 59.9634L13.1467 56.0902L10.6571 53.6007C10.2039 53.1474 9.46901 53.1474 9.01573 53.6007L2.65307 59.9634C2.19979 60.4166 2.19979 61.1515 2.65307 61.6048L20.7084 79.6601C21.1617 80.1134 21.8965 80.1134 22.3498 79.6601L24.8393 77.1705L9.27354 61.6048Z" fill="#272F7A"/>
<path d="M63.5198 0C59.3185 0 55.3551 4.19438 51.8563 3.05344C51.4471 2.92 51.0048 3.14844 50.8592 3.55344C49.8856 6.26094 49.3529 9.17859 49.3529 12.2214C49.3529 22.1095 54.9523 29.2725 63.1524 33.5072C63.3823 33.6259 63.6576 33.6259 63.8874 33.5072C72.0876 29.2725 77.687 22.1095 77.687 12.2214C77.687 9.17859 77.1542 6.26094 76.1807 3.55344C76.0351 3.14844 75.5927 2.92 75.1835 3.05344C71.6845 4.19438 67.7209 0 63.5198 0Z" fill="#3E4695"/>
<path d="M61.4196 24.4195C57.1763 23.4603 53.9973 19.6623 53.9973 15.1333C53.9973 12.7833 54.8546 10.6311 56.2707 8.96843C56.3579 6.51077 56.7924 4.14202 57.5246 1.90796C55.5349 2.83405 53.6354 3.63358 51.8563 3.05343C51.4471 2.91999 51.0048 3.14843 50.8592 3.55343C49.8856 6.26093 49.3529 9.17859 49.3529 12.2214C49.3529 22.1095 54.9523 29.2725 63.1524 33.5072C63.3823 33.6259 63.6576 33.6259 63.8874 33.5072C65.6187 32.6131 67.2323 31.587 68.7035 30.4337C65.8742 28.8001 63.4012 26.7917 61.4196 24.4195Z" fill="#272F7A"/>
<path d="M63.5198 23.4837C68.1317 23.4837 71.8704 19.745 71.8704 15.1331C71.8704 10.5212 68.1317 6.78247 63.5198 6.78247C58.9079 6.78247 55.1692 10.5212 55.1692 15.1331C55.1692 19.745 58.9079 23.4837 63.5198 23.4837Z" fill="#1EC69F"/>
<path d="M61.0865 15.1331C61.0865 11.5633 63.3273 8.51825 66.4785 7.32372C65.5587 6.97497 64.562 6.78247 63.5199 6.78247C58.9081 6.78247 55.1693 10.5212 55.1693 15.1331C55.1693 19.745 58.9081 23.4837 63.5199 23.4837C64.562 23.4837 65.5587 23.2912 66.4785 22.9425C63.3273 21.7479 61.0865 18.7029 61.0865 15.1331Z" fill="#14B892"/>
<path d="M63.5197 24.6556C58.269 24.6556 53.9973 20.3839 53.9973 15.1331C53.9973 9.88231 58.269 5.6106 63.5197 5.6106C68.7703 5.6106 73.0422 9.88231 73.0422 15.1331C73.0422 20.3839 68.7704 24.6556 63.5197 24.6556ZM63.5197 7.9545C59.5614 7.9545 56.3411 11.1748 56.3411 15.1333C56.3411 19.0917 59.5614 22.312 63.5197 22.312C67.4781 22.312 70.6984 19.0917 70.6984 15.1333C70.6984 11.1748 67.4781 7.9545 63.5197 7.9545Z" fill="white"/>
<path d="M62.9552 18.8049C62.6444 18.8049 62.3464 18.6815 62.1264 18.4617L58.6739 15.0092C58.2163 14.5515 58.2163 13.8095 58.6739 13.352C59.1319 12.8943 59.8738 12.8943 60.3313 13.352L62.955 15.9759L66.7082 12.2228C67.166 11.7651 67.9078 11.7651 68.3655 12.2228C68.8231 12.6804 68.8231 13.4224 68.3655 13.8799L63.7838 18.4617C63.5641 18.6815 63.266 18.8049 62.9552 18.8049Z" fill="white"/>
</g>
<defs>
<clipPath id="clip0_725_2805">
<rect width="80" height="80" fill="white"/>
</clipPath>
</defs>
</svg>
