<svg width="45" height="45" viewBox="0 0 45 45" fill="none" xmlns="http://www.w3.org/2000/svg">
<g clip-path="url(#clip0_1951_130)">
<path d="M26.7999 15.8435H38.6453C40.161 15.8435 41.3894 17.0719 41.3894 18.5876V24.0355H32.4446L28.4128 29.8971L32.4446 35.7594H41.3894V41.1222C41.3898 42.6351 40.1656 43.8624 38.6528 43.8663L5.8989 43.9514C4.38356 43.9514 3.15479 42.723 3.15479 41.2073V13.2145L3.16872 13.2137C3.31557 14.7059 4.57043 15.8435 6.07005 15.8435H26.7999Z" fill="#3E4695"/>
<path d="M41.3897 24.0353V35.7592H32.4449L28.4131 29.8969L32.4449 24.0353H41.3897ZM37.7502 29.9305C37.7502 28.8318 36.8595 27.941 35.7607 27.941C34.662 27.941 33.7713 28.8318 33.7713 29.9305C33.7713 31.0292 34.662 31.92 35.7607 31.92C36.8595 31.92 37.7502 31.0292 37.7502 29.9305Z" fill="#00EFD1"/>
<path d="M41.3898 12.757V18.5875C41.3898 17.0718 40.1614 15.8434 38.6457 15.8434H26.8003C28.8241 14.5296 30.1772 12.4011 30.5077 10.0111L30.5188 10.0129H38.6457C40.1614 10.0129 41.3898 11.2417 41.3898 12.757Z" fill="#00EFD1"/>
<path d="M37.7504 29.9305C37.7504 31.0292 36.8597 31.92 35.761 31.92C34.6622 31.92 33.7715 31.0292 33.7715 29.9305C33.7715 28.8318 34.6622 27.941 35.761 27.941C36.8597 27.941 37.7504 28.8318 37.7504 29.9305Z" fill="#FEDB41"/>
<path d="M14.0379 10.0129C13.986 9.63454 13.96 9.25258 13.96 8.87062C13.9603 4.89094 16.7809 1.46973 20.6873 0.710458C24.5941 -0.048461 28.4905 2.06751 29.9812 5.75741C31.4719 9.44731 30.1384 13.676 26.8005 15.8435H17.746C15.7226 14.53 14.3694 12.4022 14.0379 10.0129Z" fill="#3E4695"/>
<path d="M17.7454 15.8435H6.07005C4.57043 15.8435 3.31557 14.7058 3.16872 13.2137C3.15943 13.1194 3.15479 13.0243 3.15479 12.9282C3.15514 11.3182 4.46003 10.0133 6.07005 10.0129H14.0373C14.3688 12.4022 15.722 14.53 17.7454 15.8435Z" fill="#00EFD1"/>
<path d="M5.90166 44.5001L38.6552 44.4151C40.4693 44.4076 41.9367 42.9362 41.9392 41.1222V12.757C41.9385 10.9362 40.4671 9.45802 38.6463 9.44873H31.115C31.1282 9.26579 31.135 9.06034 31.135 8.86275C31.1353 3.96872 27.1685 0.000836779 22.2741 0.000122167C17.3801 -0.000592446 13.4122 3.96658 13.4115 8.8606C13.4115 9.05855 13.4183 9.26579 13.4315 9.44873H6.07102C4.15943 9.45588 2.61229 11.0048 2.60693 12.9167C2.60693 13.0121 2.61086 13.1075 2.61872 13.199H2.60693V41.2072C2.60943 43.0255 4.08332 44.4987 5.90166 44.5001ZM40.8416 35.2434H32.7343L29.0798 29.8924L32.7343 24.5413H40.8416V35.2434ZM40.8416 12.757V16.1357C40.2381 15.5962 39.4559 15.2993 38.6463 15.3028H28.3777C29.7154 14.0251 30.6226 12.3626 30.9735 10.5464H38.6463C39.8615 10.555 40.8416 11.5422 40.8416 12.757ZM22.2731 1.1067C26.5593 1.11134 30.0323 4.58472 30.0373 8.87061C30.037 9.22863 30.0127 9.58594 29.9641 9.94074C29.6657 12.1164 28.4548 14.0223 26.6336 15.3028H17.9132C16.092 14.0223 14.8811 12.1171 14.5821 9.94253C14.5335 9.58772 14.5092 9.23042 14.5092 8.8724C14.5142 4.58615 17.9872 1.11277 22.2731 1.1067ZM4.39847 11.2467C4.8401 10.7997 5.44252 10.5474 6.07102 10.5464H13.573C13.9239 12.3629 14.8315 14.0251 16.1696 15.3028H6.07102C4.85153 15.3057 3.83071 14.3788 3.71601 13.1647C3.70851 13.0886 3.70458 13.0046 3.70458 12.9268C3.70279 12.2968 3.95255 11.6919 4.39847 11.2467ZM3.70458 15.4651C4.3463 16.0657 5.19205 16.4001 6.07102 16.4005H38.6463C39.8568 16.398 40.8398 17.3774 40.8416 18.5876V23.4437H32.4456C32.2619 23.4519 32.0936 23.5488 31.9936 23.7028L27.9614 29.5751C27.8328 29.7645 27.8328 30.0135 27.9614 30.2025L31.9936 36.0841C32.094 36.2378 32.2623 36.3335 32.4456 36.341H40.8416V41.1222C40.8398 42.3316 39.8618 43.3124 38.6524 43.3174L5.89987 43.4025C4.68824 43.4011 3.70601 42.4192 3.70458 41.2072V15.4651Z" fill="#083863"/>
<path d="M35.761 32.4689C37.163 32.4689 38.2993 31.3326 38.2993 29.9306C38.2993 28.5289 37.163 27.3923 35.761 27.3923C34.3592 27.3923 33.2227 28.5289 33.2227 29.9306C33.2244 31.3319 34.36 32.4675 35.761 32.4689ZM35.761 28.4899C36.5567 28.4899 37.2016 29.1349 37.2016 29.9306C37.2016 30.7263 36.5567 31.3712 35.761 31.3712C34.9652 31.3712 34.3203 30.7263 34.3203 29.9306C34.3214 29.1352 34.9656 28.491 35.761 28.4899Z" fill="#083863"/>
<path d="M18.8315 6.88748C18.8315 7.19048 19.077 7.4363 19.3804 7.4363H22.9052C22.8273 7.75073 22.6562 8.03444 22.4146 8.25025C22.0505 8.61291 21.5564 8.81372 21.0426 8.80836H19.3804C19.1528 8.81801 18.9527 8.962 18.8708 9.17496C18.789 9.38755 18.8408 9.62838 19.0034 9.78845L23.156 13.7177C23.2611 13.8185 23.4022 13.8735 23.548 13.87C23.6934 13.8667 23.8317 13.8053 23.9321 13.6995C24.14 13.4712 24.1304 13.1193 23.9099 12.9027L20.7603 9.90601H21.0422C21.8476 9.91244 22.6215 9.59551 23.191 9.02632C23.6352 8.60041 23.9299 8.04301 24.0318 7.4363H25.1877C25.491 7.4363 25.7365 7.19048 25.7365 6.88748C25.7365 6.58413 25.491 6.33866 25.1877 6.33866H24.0314C23.9353 5.88131 23.7059 5.33248 23.3783 4.9666H25.1877C25.491 4.9666 25.7365 4.72078 25.7365 4.41778C25.7365 4.11443 25.491 3.86896 25.1877 3.86896H19.3804C19.077 3.86896 18.8315 4.11443 18.8315 4.41778C18.8315 4.72078 19.077 4.9666 19.3804 4.9666H21.0422C21.9015 4.95124 22.664 5.51364 22.9038 6.33866H19.3804C19.077 6.33866 18.8315 6.58413 18.8315 6.88748Z" fill="white"/>
</g>
<defs>
<clipPath id="clip0_1951_130">
<rect width="44.5" height="44.5" fill="white"/>
</clipPath>
</defs>
</svg>
